<svg id="svg" version="1.1" width="400" height="64.92478226444972" viewBox="0 0 400 64.92478226444972" xmlns="http://www.w3.org/2000/svg" xmlns:xlink="http://www.w3.org/1999/xlink" ><g id="svgg"><path id="path0" d="M166.833 4.000 L 166.833 8.000 171.083 8.000 L 175.333 8.000 175.333 4.000 L 175.333 0.000 171.083 0.000 L 166.833 0.000 166.833 4.000 M107.833 32.917 L 107.833 64.333 123.500 64.333 C 133.833 64.333,139.167 64.277,139.167 64.167 C 139.167 64.069,139.750 64.000,140.583 64.000 C 141.417 64.000,142.000 63.931,142.000 63.833 C 142.000 63.742,142.375 63.667,142.833 63.667 C 143.292 63.667,143.667 63.602,143.667 63.524 C 143.667 63.445,144.210 63.331,144.875 63.269 C 145.540 63.208,146.108 63.085,146.139 62.995 C 146.169 62.906,146.413 62.833,146.681 62.833 C 146.948 62.833,147.167 62.758,147.167 62.667 C 147.167 62.575,147.354 62.500,147.583 62.500 C 147.813 62.500,148.000 62.425,148.000 62.333 C 148.000 62.242,148.150 62.167,148.333 62.167 C 148.517 62.167,148.667 62.092,148.667 62.000 C 148.667 61.908,148.892 61.833,149.167 61.833 C 149.442 61.833,149.667 61.758,149.667 61.667 C 149.667 61.575,149.800 61.500,149.963 61.500 C 150.126 61.500,150.368 61.350,150.500 61.167 C 150.632 60.983,150.836 60.833,150.953 60.833 C 151.071 60.833,151.167 60.758,151.167 60.667 C 151.167 60.575,151.285 60.500,151.429 60.500 C 151.573 60.500,151.803 60.388,151.940 60.250 C 152.078 60.113,152.316 59.997,152.470 59.992 C 152.624 59.988,153.012 59.685,153.333 59.318 C 154.116 58.424,155.196 57.343,155.816 56.833 C 156.095 56.604,156.326 56.285,156.328 56.125 C 156.331 55.965,156.408 55.833,156.500 55.833 C 156.592 55.833,156.667 55.715,156.667 55.571 C 156.667 55.427,156.779 55.197,156.917 55.060 C 157.054 54.922,157.167 54.665,157.167 54.488 C 157.167 54.311,157.242 54.167,157.333 54.167 C 157.425 54.167,157.500 53.979,157.500 53.750 C 157.500 53.521,157.575 53.333,157.667 53.333 C 157.758 53.333,157.833 53.183,157.833 53.000 C 157.833 52.817,157.908 52.667,158.000 52.667 C 158.092 52.667,158.167 52.442,158.167 52.167 C 158.167 51.892,158.242 51.667,158.333 51.667 C 158.425 51.667,158.500 51.329,158.500 50.917 C 158.500 50.504,158.575 50.167,158.667 50.167 C 158.772 50.167,158.833 49.000,158.833 47.000 C 158.833 45.000,158.772 43.833,158.667 43.833 C 158.575 43.833,158.500 43.458,158.500 43.000 C 158.500 42.542,158.425 42.167,158.333 42.167 C 158.242 42.167,158.167 41.979,158.167 41.750 C 158.167 41.521,158.092 41.333,158.000 41.333 C 157.908 41.333,157.833 41.183,157.833 41.000 C 157.833 40.817,157.758 40.667,157.667 40.667 C 157.575 40.667,157.500 40.517,157.500 40.333 C 157.500 40.150,157.433 40.000,157.352 40.000 C 157.270 40.000,157.158 39.754,157.101 39.453 C 157.045 39.152,156.849 38.798,156.666 38.666 C 156.483 38.534,156.333 38.328,156.333 38.208 C 156.333 37.949,153.736 35.333,153.478 35.333 C 153.380 35.333,153.090 35.108,152.833 34.833 C 152.576 34.558,152.246 34.333,152.100 34.333 C 151.953 34.333,151.833 34.258,151.833 34.167 C 151.833 34.075,151.683 34.000,151.500 34.000 C 151.317 34.000,151.167 33.925,151.167 33.833 C 151.167 33.742,151.054 33.667,150.917 33.667 C 150.779 33.667,150.667 33.592,150.667 33.500 C 150.667 33.408,150.517 33.333,150.333 33.333 C 150.150 33.333,150.000 33.265,150.000 33.181 C 150.000 33.098,149.700 32.979,149.333 32.917 C 148.967 32.855,148.667 32.736,148.667 32.652 C 148.667 32.568,148.517 32.500,148.333 32.500 C 148.150 32.500,148.000 32.425,148.000 32.333 C 148.000 32.242,147.813 32.167,147.583 32.167 C 147.354 32.167,147.167 32.092,147.167 32.000 C 147.167 31.908,147.017 31.833,146.833 31.833 C 146.650 31.833,146.500 31.758,146.500 31.667 C 146.500 31.575,146.650 31.500,146.833 31.500 C 147.017 31.500,147.167 31.425,147.167 31.333 C 147.167 31.242,147.263 31.167,147.380 31.167 C 147.497 31.167,147.701 31.017,147.833 30.833 C 147.965 30.650,148.190 30.500,148.333 30.500 C 148.476 30.500,148.701 30.350,148.833 30.167 C 148.965 29.983,149.173 29.833,149.294 29.833 C 149.532 29.833,149.813 29.629,150.384 29.038 C 150.585 28.829,151.219 28.174,151.792 27.582 C 152.365 26.990,152.833 26.446,152.833 26.373 C 152.833 26.300,152.983 26.132,153.167 26.000 C 153.350 25.868,153.500 25.626,153.500 25.463 C 153.500 25.300,153.568 25.167,153.652 25.167 C 153.736 25.167,153.855 24.867,153.917 24.500 C 153.979 24.133,154.098 23.833,154.181 23.833 C 154.265 23.833,154.333 23.646,154.333 23.417 C 154.333 23.188,154.408 23.000,154.500 23.000 C 154.592 23.000,154.667 22.775,154.667 22.500 C 154.667 22.225,154.742 22.000,154.833 22.000 C 154.925 22.000,155.000 21.625,155.000 21.167 C 155.000 20.708,155.075 20.333,155.167 20.333 C 155.272 20.333,155.333 19.194,155.333 17.250 C 155.333 15.306,155.272 14.167,155.167 14.167 C 155.075 14.167,155.000 13.867,155.000 13.500 C 155.000 13.133,154.925 12.833,154.833 12.833 C 154.742 12.833,154.667 12.608,154.667 12.333 C 154.667 12.058,154.592 11.833,154.500 11.833 C 154.408 11.833,154.333 11.646,154.333 11.417 C 154.333 11.188,154.265 11.000,154.181 11.000 C 154.098 11.000,153.981 10.713,153.922 10.363 C 153.863 10.013,153.668 9.621,153.490 9.493 C 153.312 9.365,153.167 9.154,153.167 9.024 C 153.167 8.779,152.553 8.167,152.308 8.167 C 152.230 8.167,152.167 8.052,152.167 7.912 C 152.167 7.678,150.795 6.167,150.582 6.167 C 150.531 6.167,150.226 5.904,149.906 5.583 C 149.585 5.263,149.175 5.000,148.994 5.000 C 148.814 5.000,148.667 4.925,148.667 4.833 C 148.667 4.742,148.533 4.667,148.370 4.667 C 148.207 4.667,147.965 4.517,147.833 4.333 C 147.701 4.150,147.497 4.000,147.380 4.000 C 147.263 4.000,147.167 3.925,147.167 3.833 C 147.167 3.742,147.017 3.667,146.833 3.667 C 146.650 3.667,146.500 3.592,146.500 3.500 C 146.500 3.408,146.275 3.333,146.000 3.333 C 145.725 3.333,145.500 3.258,145.500 3.167 C 145.500 3.075,145.350 3.000,145.167 3.000 C 144.983 3.000,144.833 2.925,144.833 2.833 C 144.833 2.742,144.646 2.667,144.417 2.667 C 144.188 2.667,144.000 2.592,144.000 2.500 C 144.000 2.408,143.706 2.333,143.347 2.333 C 142.988 2.333,142.669 2.260,142.639 2.170 C 142.608 2.080,141.815 1.956,140.875 1.895 C 139.935 1.833,139.167 1.720,139.167 1.642 C 139.167 1.564,132.117 1.500,123.500 1.500 L 107.833 1.500 107.833 32.917 M217.833 32.917 L 217.833 64.333 223.500 64.333 L 229.167 64.333 229.167 42.667 C 229.167 28.333,229.223 21.000,229.333 21.000 C 229.425 21.000,229.500 21.133,229.500 21.297 C 229.500 21.460,229.650 21.701,229.833 21.833 C 230.017 21.965,230.167 22.207,230.167 22.370 C 230.167 22.533,230.237 22.667,230.322 22.667 C 230.408 22.667,230.531 22.835,230.596 23.042 C 230.661 23.248,230.854 23.538,231.024 23.686 C 231.194 23.834,231.333 24.062,231.333 24.191 C 231.333 24.321,231.483 24.535,231.667 24.667 C 231.850 24.799,232.000 25.024,232.000 25.167 C 232.000 25.310,232.150 25.535,232.333 25.667 C 232.517 25.799,232.667 25.986,232.667 26.083 C 232.667 26.180,232.817 26.368,233.000 26.500 C 233.183 26.632,233.333 26.874,233.333 27.037 C 233.333 27.200,233.407 27.333,233.497 27.333 C 233.587 27.333,233.711 27.540,233.773 27.792 C 233.836 28.044,234.025 28.371,234.193 28.520 C 234.362 28.668,234.500 28.906,234.500 29.050 C 234.500 29.193,234.650 29.358,234.833 29.417 C 235.017 29.475,235.167 29.651,235.167 29.808 C 235.167 29.965,235.317 30.201,235.500 30.333 C 235.683 30.465,235.833 30.690,235.833 30.833 C 235.833 30.976,235.983 31.201,236.167 31.333 C 236.350 31.465,236.500 31.699,236.500 31.852 C 236.500 32.006,236.612 32.174,236.750 32.227 C 236.887 32.280,237.000 32.459,237.000 32.625 C 237.000 32.791,237.150 33.035,237.333 33.167 C 237.517 33.299,237.667 33.524,237.667 33.667 C 237.667 33.810,237.817 34.035,238.000 34.167 C 238.183 34.299,238.333 34.524,238.333 34.667 C 238.333 34.810,238.483 35.035,238.667 35.167 C 238.850 35.299,239.000 35.486,239.000 35.583 C 239.000 35.680,239.150 35.868,239.333 36.000 C 239.517 36.132,239.667 36.374,239.667 36.537 C 239.667 36.700,239.740 36.833,239.830 36.833 C 239.920 36.833,240.045 37.040,240.107 37.292 C 240.169 37.544,240.358 37.871,240.527 38.020 C 240.695 38.168,240.833 38.357,240.833 38.441 C 240.833 38.525,240.983 38.701,241.167 38.833 C 241.350 38.965,241.500 39.190,241.500 39.333 C 241.500 39.476,241.650 39.701,241.833 39.833 C 242.017 39.965,242.167 40.190,242.167 40.333 C 242.167 40.476,242.317 40.701,242.500 40.833 C 242.683 40.965,242.833 41.199,242.833 41.352 C 242.833 41.506,242.946 41.674,243.083 41.727 C 243.221 41.780,243.333 41.959,243.333 42.125 C 243.333 42.291,243.483 42.535,243.667 42.667 C 243.850 42.799,244.000 43.024,244.000 43.167 C 244.000 43.310,244.150 43.535,244.333 43.667 C 244.517 43.799,244.667 44.024,244.667 44.167 C 244.667 44.310,244.817 44.535,245.000 44.667 C 245.183 44.799,245.333 44.986,245.333 45.083 C 245.333 45.180,245.483 45.368,245.667 45.500 C 245.850 45.632,246.000 45.842,246.000 45.965 C 246.000 46.089,246.094 46.295,246.208 46.423 C 246.724 46.998,246.833 47.168,246.833 47.398 C 246.833 47.534,246.983 47.692,247.167 47.750 C 247.350 47.808,247.500 47.969,247.500 48.106 C 247.500 48.950,249.110 49.160,249.274 48.338 C 249.330 48.059,249.510 47.800,249.687 47.744 C 249.859 47.689,250.000 47.529,250.000 47.389 C 250.000 47.249,250.225 46.924,250.500 46.667 C 250.775 46.410,251.000 46.096,251.000 45.970 C 251.000 45.844,251.150 45.632,251.333 45.500 C 251.517 45.368,251.667 45.164,251.667 45.047 C 251.667 44.929,251.736 44.833,251.821 44.833 C 251.906 44.833,252.108 44.533,252.270 44.167 C 252.432 43.800,252.625 43.500,252.699 43.500 C 252.773 43.500,252.833 43.367,252.833 43.203 C 252.833 43.040,252.983 42.799,253.167 42.667 C 253.350 42.535,253.500 42.298,253.500 42.141 C 253.500 41.984,253.650 41.808,253.833 41.750 C 254.017 41.692,254.167 41.516,254.167 41.359 C 254.167 41.202,254.317 40.965,254.500 40.833 C 254.683 40.701,254.833 40.487,254.833 40.358 C 254.833 40.228,254.971 40.001,255.140 39.853 C 255.309 39.705,255.498 39.377,255.560 39.125 C 255.622 38.873,255.747 38.667,255.837 38.667 C 255.926 38.667,256.000 38.571,256.000 38.453 C 256.000 38.336,256.150 38.132,256.333 38.000 C 256.517 37.868,256.667 37.643,256.667 37.500 C 256.667 37.357,256.817 37.132,257.000 37.000 C 257.183 36.868,257.333 36.643,257.333 36.500 C 257.333 36.357,257.483 36.132,257.667 36.000 C 257.850 35.868,258.000 35.691,258.000 35.608 C 258.000 35.524,258.138 35.334,258.307 35.186 C 258.475 35.038,258.664 34.710,258.727 34.458 C 258.789 34.206,258.913 34.000,259.003 34.000 C 259.093 34.000,259.167 33.867,259.167 33.703 C 259.167 33.540,259.317 33.299,259.500 33.167 C 259.683 33.035,259.833 32.798,259.833 32.641 C 259.833 32.484,259.983 32.308,260.167 32.250 C 260.350 32.192,260.500 32.016,260.500 31.859 C 260.500 31.702,260.650 31.465,260.833 31.333 C 261.017 31.201,261.167 30.976,261.167 30.833 C 261.167 30.690,261.317 30.465,261.500 30.333 C 261.683 30.201,261.833 29.957,261.833 29.791 C 261.833 29.625,261.946 29.446,262.083 29.394 C 262.221 29.341,262.333 29.172,262.333 29.019 C 262.333 28.866,262.483 28.632,262.667 28.500 C 262.850 28.368,263.000 28.143,263.000 28.000 C 263.000 27.857,263.150 27.632,263.333 27.500 C 263.517 27.368,263.667 27.143,263.667 27.000 C 263.667 26.857,263.817 26.632,264.000 26.500 C 264.183 26.368,264.333 26.191,264.333 26.108 C 264.333 26.024,264.471 25.834,264.640 25.686 C 264.809 25.538,264.998 25.210,265.060 24.958 C 265.122 24.706,265.247 24.500,265.337 24.500 C 265.426 24.500,265.500 24.367,265.500 24.203 C 265.500 24.040,265.650 23.799,265.833 23.667 C 266.017 23.535,266.167 23.347,266.167 23.250 C 266.167 23.153,266.317 22.965,266.500 22.833 C 266.683 22.701,266.833 22.476,266.833 22.333 C 266.833 22.190,266.983 21.965,267.167 21.833 C 267.350 21.701,267.500 21.492,267.500 21.368 C 267.500 21.144,267.889 20.667,268.071 20.667 C 268.124 20.667,268.167 30.492,268.167 42.500 L 268.167 64.333 273.833 64.333 L 279.500 64.333 279.500 32.917 L 279.500 1.500 273.405 1.500 C 267.203 1.500,266.833 1.535,266.833 2.118 C 266.833 2.196,266.683 2.368,266.500 2.500 C 266.317 2.632,266.167 2.874,266.167 3.037 C 266.167 3.200,266.092 3.333,266.000 3.333 C 265.908 3.333,265.833 3.451,265.833 3.595 C 265.833 3.739,265.721 3.970,265.583 4.107 C 265.446 4.245,265.333 4.497,265.333 4.667 C 265.333 4.838,265.183 5.025,265.000 5.083 C 264.817 5.142,264.667 5.318,264.667 5.474 C 264.667 5.631,264.517 5.868,264.333 6.000 C 264.150 6.132,264.000 6.357,264.000 6.500 C 264.000 6.643,263.850 6.868,263.667 7.000 C 263.483 7.132,263.333 7.374,263.333 7.537 C 263.333 7.700,263.258 7.833,263.167 7.833 C 263.075 7.833,263.000 7.918,263.000 8.022 C 263.000 8.126,262.862 8.332,262.693 8.480 C 262.525 8.629,262.336 8.956,262.273 9.208 C 262.211 9.460,262.087 9.667,261.997 9.667 C 261.907 9.667,261.833 9.800,261.833 9.963 C 261.833 10.126,261.683 10.368,261.500 10.500 C 261.317 10.632,261.167 10.820,261.167 10.917 C 261.167 11.014,261.017 11.201,260.833 11.333 C 260.650 11.465,260.500 11.707,260.500 11.870 C 260.500 12.033,260.425 12.167,260.333 12.167 C 260.242 12.167,260.167 12.300,260.167 12.463 C 260.167 12.626,260.017 12.868,259.833 13.000 C 259.650 13.132,259.500 13.374,259.500 13.537 C 259.500 13.700,259.430 13.833,259.345 13.833 C 259.259 13.833,259.136 14.002,259.071 14.208 C 259.006 14.415,258.813 14.705,258.643 14.853 C 258.473 15.001,258.333 15.228,258.333 15.358 C 258.333 15.487,258.183 15.701,258.000 15.833 C 257.817 15.965,257.667 16.207,257.667 16.370 C 257.667 16.533,257.592 16.667,257.500 16.667 C 257.408 16.667,257.333 16.812,257.333 16.989 C 257.333 17.166,257.183 17.358,257.000 17.417 C 256.817 17.475,256.667 17.640,256.667 17.783 C 256.667 17.927,256.529 18.166,256.360 18.314 C 256.191 18.462,256.002 18.790,255.940 19.042 C 255.878 19.294,255.753 19.500,255.663 19.500 C 255.574 19.500,255.500 19.633,255.500 19.797 C 255.500 19.960,255.350 20.201,255.167 20.333 C 254.983 20.465,254.833 20.653,254.833 20.750 C 254.833 20.847,254.683 21.035,254.500 21.167 C 254.317 21.299,254.167 21.540,254.167 21.703 C 254.167 21.867,254.092 22.000,254.000 22.000 C 253.908 22.000,253.833 22.133,253.833 22.297 C 253.833 22.460,253.683 22.701,253.500 22.833 C 253.317 22.965,253.167 23.160,253.167 23.266 C 253.167 23.372,253.054 23.553,252.917 23.667 C 252.779 23.781,252.667 23.998,252.667 24.150 C 252.667 24.302,252.517 24.535,252.333 24.667 C 252.150 24.799,252.000 25.024,252.000 25.167 C 252.000 25.310,251.850 25.535,251.667 25.667 C 251.483 25.799,251.333 26.040,251.333 26.203 C 251.333 26.367,251.258 26.500,251.167 26.500 C 251.075 26.500,251.000 26.596,251.000 26.713 C 251.000 26.830,250.850 27.035,250.667 27.167 C 250.483 27.299,250.333 27.513,250.333 27.642 C 250.333 27.772,250.195 27.999,250.027 28.147 C 249.858 28.295,249.669 28.623,249.607 28.875 C 249.545 29.127,249.420 29.333,249.330 29.333 C 249.240 29.333,249.167 29.414,249.167 29.512 C 249.167 29.931,248.683 30.207,248.417 29.940 C 248.279 29.803,248.167 29.627,248.167 29.549 C 248.167 29.471,248.017 29.299,247.833 29.167 C 247.650 29.035,247.500 28.810,247.500 28.667 C 247.500 28.524,247.350 28.299,247.167 28.167 C 246.983 28.035,246.833 27.793,246.833 27.630 C 246.833 27.467,246.758 27.333,246.667 27.333 C 246.575 27.333,246.500 27.191,246.500 27.018 C 246.500 26.844,246.387 26.659,246.250 26.606 C 246.112 26.554,246.000 26.375,246.000 26.209 C 246.000 26.043,245.850 25.799,245.667 25.667 C 245.483 25.535,245.333 25.310,245.333 25.167 C 245.333 25.024,245.183 24.799,245.000 24.667 C 244.817 24.535,244.667 24.310,244.667 24.167 C 244.667 24.024,244.517 23.799,244.333 23.667 C 244.150 23.535,244.000 23.330,244.000 23.213 C 244.000 23.096,243.925 23.000,243.833 23.000 C 243.742 23.000,243.667 22.878,243.667 22.728 C 243.667 22.578,243.529 22.334,243.360 22.186 C 243.191 22.038,243.002 21.710,242.940 21.458 C 242.878 21.206,242.753 21.000,242.663 21.000 C 242.574 21.000,242.500 20.904,242.500 20.787 C 242.500 20.670,242.350 20.465,242.167 20.333 C 241.983 20.201,241.833 19.976,241.833 19.833 C 241.833 19.690,241.683 19.465,241.500 19.333 C 241.317 19.201,241.167 18.960,241.167 18.797 C 241.167 18.633,241.092 18.500,241.000 18.500 C 240.908 18.500,240.833 18.367,240.833 18.203 C 240.833 18.040,240.683 17.799,240.500 17.667 C 240.317 17.535,240.167 17.330,240.167 17.213 C 240.167 17.096,240.093 17.000,240.003 17.000 C 239.913 17.000,239.789 16.794,239.727 16.542 C 239.664 16.290,239.475 15.962,239.307 15.814 C 239.138 15.666,239.000 15.438,239.000 15.309 C 239.000 15.179,238.850 14.965,238.667 14.833 C 238.483 14.701,238.333 14.497,238.333 14.380 C 238.333 14.263,238.258 14.167,238.167 14.167 C 238.075 14.167,238.000 14.033,238.000 13.870 C 238.000 13.707,237.850 13.465,237.667 13.333 C 237.483 13.201,237.333 12.976,237.333 12.833 C 237.333 12.690,237.183 12.465,237.000 12.333 C 236.817 12.201,236.667 11.969,236.667 11.817 C 236.667 11.665,236.554 11.447,236.417 11.333 C 236.279 11.219,236.167 11.039,236.167 10.933 C 236.167 10.827,236.017 10.632,235.833 10.500 C 235.650 10.368,235.500 10.143,235.500 10.000 C 235.500 9.857,235.350 9.632,235.167 9.500 C 234.983 9.368,234.833 9.126,234.833 8.963 C 234.833 8.800,234.758 8.667,234.667 8.667 C 234.575 8.667,234.500 8.571,234.500 8.453 C 234.500 8.336,234.350 8.132,234.167 8.000 C 233.983 7.868,233.833 7.626,233.833 7.463 C 233.833 7.300,233.760 7.167,233.670 7.167 C 233.580 7.167,233.455 6.960,233.393 6.708 C 233.331 6.456,233.142 6.129,232.973 5.980 C 232.805 5.832,232.667 5.594,232.667 5.450 C 232.667 5.307,232.517 5.142,232.333 5.083 C 232.150 5.025,232.000 4.833,232.000 4.655 C 232.000 4.478,231.925 4.333,231.833 4.333 C 231.742 4.333,231.667 4.200,231.667 4.037 C 231.667 3.874,231.517 3.632,231.333 3.500 C 231.150 3.368,231.000 3.154,231.000 3.024 C 231.000 2.895,230.861 2.668,230.691 2.520 C 230.520 2.371,230.328 2.081,230.263 1.875 L 230.144 1.500 223.989 1.500 L 217.833 1.500 217.833 32.917 M290.667 32.917 L 290.667 64.333 314.417 64.333 L 338.167 64.333 338.167 59.167 L 338.167 54.000 320.250 54.000 L 302.333 54.000 302.333 45.917 L 302.333 37.833 318.000 37.833 L 333.667 37.833 333.667 32.583 L 333.667 27.333 318.000 27.333 L 302.333 27.333 302.333 19.583 L 302.333 11.833 319.917 11.833 L 337.500 11.833 337.500 6.667 L 337.500 1.500 314.083 1.500 L 290.667 1.500 290.667 32.917 M342.167 1.880 C 342.167 2.089,342.317 2.368,342.500 2.500 C 342.683 2.632,342.833 2.844,342.833 2.970 C 342.833 3.096,343.058 3.410,343.333 3.667 C 343.608 3.924,343.833 4.249,343.833 4.389 C 343.833 4.529,343.983 4.692,344.167 4.750 C 344.350 4.808,344.500 4.966,344.500 5.102 C 344.500 5.332,344.609 5.502,345.125 6.077 C 345.240 6.205,345.333 6.411,345.333 6.535 C 345.333 6.658,345.483 6.868,345.667 7.000 C 345.850 7.132,346.000 7.306,346.000 7.387 C 346.000 7.467,346.225 7.743,346.500 8.000 C 346.775 8.257,347.000 8.570,347.000 8.697 C 347.000 8.823,347.150 9.035,347.333 9.167 C 347.517 9.299,347.667 9.506,347.667 9.627 C 347.667 9.749,347.854 10.050,348.083 10.297 C 348.313 10.544,348.500 10.825,348.500 10.920 C 348.500 11.015,348.650 11.201,348.833 11.333 C 349.017 11.465,349.167 11.677,349.167 11.803 C 349.167 11.930,349.392 12.243,349.667 12.500 C 349.942 12.757,350.167 13.070,350.167 13.197 C 350.167 13.323,350.317 13.535,350.500 13.667 C 350.683 13.799,350.833 13.971,350.833 14.049 C 350.833 14.127,350.927 14.295,351.042 14.423 C 351.551 14.991,351.667 15.166,351.667 15.373 C 351.667 15.494,351.817 15.701,352.000 15.833 C 352.183 15.965,352.333 16.179,352.333 16.309 C 352.333 16.554,352.947 17.167,353.192 17.167 C 353.270 17.167,353.333 17.300,353.333 17.463 C 353.333 17.626,353.483 17.868,353.667 18.000 C 353.850 18.132,354.000 18.342,354.000 18.465 C 354.000 18.589,354.094 18.795,354.208 18.923 C 354.685 19.455,354.833 19.660,354.833 19.790 C 354.833 19.865,354.983 20.035,355.167 20.167 C 355.350 20.299,355.500 20.524,355.500 20.667 C 355.500 20.810,355.650 21.035,355.833 21.167 C 356.017 21.299,356.167 21.510,356.167 21.637 C 356.167 21.763,356.392 22.076,356.667 22.333 C 356.942 22.590,357.167 22.883,357.167 22.984 C 357.167 23.084,357.240 23.167,357.330 23.167 C 357.420 23.167,357.545 23.373,357.608 23.625 C 357.671 23.877,357.935 24.282,358.195 24.525 C 358.454 24.768,358.667 25.070,358.667 25.197 C 358.667 25.323,358.817 25.535,359.000 25.667 C 359.183 25.799,359.333 25.973,359.333 26.053 C 359.333 26.134,359.558 26.410,359.833 26.667 C 360.108 26.924,360.333 27.254,360.333 27.400 C 360.333 27.547,360.407 27.667,360.497 27.667 C 360.587 27.667,360.712 27.873,360.775 28.125 C 360.838 28.377,361.102 28.782,361.361 29.025 C 361.621 29.268,361.833 29.533,361.833 29.613 C 361.833 29.694,361.983 29.868,362.167 30.000 C 362.350 30.132,362.500 30.344,362.500 30.470 C 362.500 30.596,362.725 30.910,363.000 31.167 C 363.275 31.424,363.500 31.747,363.500 31.886 C 363.500 32.025,363.594 32.183,363.708 32.236 C 363.875 32.314,363.875 32.353,363.708 32.431 C 363.594 32.484,363.500 32.617,363.500 32.727 C 363.500 32.837,363.350 33.035,363.167 33.167 C 362.983 33.299,362.833 33.510,362.833 33.637 C 362.833 33.763,362.608 34.076,362.333 34.333 C 362.058 34.590,361.833 34.904,361.833 35.030 C 361.833 35.156,361.683 35.368,361.500 35.500 C 361.317 35.632,361.167 35.818,361.167 35.913 C 361.167 36.009,360.979 36.289,360.750 36.536 C 360.521 36.783,360.333 37.071,360.333 37.176 C 360.333 37.281,360.108 37.576,359.833 37.833 C 359.558 38.090,359.333 38.415,359.333 38.556 C 359.333 38.696,359.183 38.858,359.000 38.917 C 358.817 38.975,358.667 39.137,358.667 39.278 C 358.667 39.418,358.454 39.732,358.195 39.975 C 357.935 40.218,357.671 40.623,357.608 40.875 C 357.545 41.127,357.420 41.333,357.330 41.333 C 357.240 41.333,357.167 41.483,357.167 41.667 C 357.167 41.850,357.103 42.000,357.026 42.000 C 356.780 42.000,356.167 42.613,356.167 42.858 C 356.167 42.987,356.017 43.201,355.833 43.333 C 355.650 43.465,355.500 43.677,355.500 43.803 C 355.500 43.930,355.286 44.233,355.023 44.478 C 354.761 44.723,354.494 45.091,354.429 45.295 C 354.364 45.499,354.241 45.667,354.155 45.667 C 354.070 45.667,354.000 45.787,354.000 45.933 C 354.000 46.080,353.775 46.410,353.500 46.667 C 353.225 46.924,353.000 47.237,353.000 47.363 C 353.000 47.490,352.850 47.701,352.667 47.833 C 352.483 47.965,352.333 48.139,352.333 48.220 C 352.333 48.300,352.121 48.565,351.861 48.808 C 351.602 49.051,351.338 49.456,351.275 49.708 C 351.212 49.960,351.087 50.167,350.997 50.167 C 350.907 50.167,350.833 50.289,350.833 50.439 C 350.833 50.713,350.237 51.333,349.974 51.333 C 349.897 51.333,349.833 51.467,349.833 51.630 C 349.833 51.793,349.683 52.035,349.500 52.167 C 349.317 52.299,349.167 52.510,349.167 52.637 C 349.167 52.763,348.942 53.076,348.667 53.333 C 348.392 53.590,348.167 53.910,348.167 54.044 C 348.167 54.177,347.979 54.427,347.750 54.600 C 347.521 54.772,347.333 55.028,347.333 55.169 C 347.333 55.311,347.183 55.535,347.000 55.667 C 346.817 55.799,346.667 56.010,346.667 56.137 C 346.667 56.263,346.442 56.576,346.167 56.833 C 345.892 57.090,345.667 57.366,345.667 57.447 C 345.667 57.527,345.517 57.701,345.333 57.833 C 345.150 57.965,345.000 58.204,345.000 58.363 C 345.000 58.521,344.813 58.839,344.583 59.068 C 344.354 59.297,344.167 59.584,344.167 59.706 C 344.167 59.827,344.017 60.035,343.833 60.167 C 343.650 60.299,343.500 60.473,343.500 60.553 C 343.500 60.634,343.275 60.910,343.000 61.167 C 342.725 61.424,342.500 61.726,342.500 61.839 C 342.500 61.952,342.362 62.166,342.193 62.314 C 342.025 62.462,341.836 62.790,341.773 63.042 C 341.711 63.294,341.587 63.500,341.497 63.500 C 341.407 63.500,341.333 63.688,341.333 63.917 L 341.333 64.333 347.845 64.333 C 354.678 64.333,354.833 64.317,354.833 63.606 C 354.833 63.469,354.983 63.308,355.167 63.250 C 355.350 63.192,355.500 63.016,355.500 62.859 C 355.500 62.702,355.650 62.465,355.833 62.333 C 356.017 62.201,356.167 61.990,356.167 61.863 C 356.167 61.737,356.392 61.424,356.667 61.167 C 356.942 60.910,357.167 60.577,357.167 60.428 C 357.167 60.278,357.279 60.113,357.417 60.060 C 357.554 60.008,357.667 59.839,357.667 59.686 C 357.667 59.532,357.817 59.299,358.000 59.167 C 358.183 59.035,358.333 58.823,358.333 58.697 C 358.333 58.570,358.558 58.257,358.833 58.000 C 359.108 57.743,359.333 57.467,359.333 57.387 C 359.333 57.306,359.483 57.132,359.667 57.000 C 359.850 56.868,360.000 56.626,360.000 56.463 C 360.000 56.300,360.074 56.167,360.163 56.167 C 360.253 56.167,360.379 55.960,360.442 55.708 C 360.504 55.456,360.768 55.051,361.028 54.808 C 361.288 54.565,361.500 54.300,361.500 54.220 C 361.500 54.139,361.650 53.965,361.833 53.833 C 362.017 53.701,362.167 53.476,362.167 53.333 C 362.167 53.190,362.317 52.965,362.500 52.833 C 362.683 52.701,362.833 52.494,362.833 52.372 C 362.833 52.251,363.021 51.964,363.250 51.735 C 363.479 51.506,363.667 51.226,363.667 51.113 C 363.667 50.999,363.817 50.799,364.000 50.667 C 364.183 50.535,364.333 50.310,364.333 50.167 C 364.333 50.024,364.483 49.799,364.667 49.667 C 364.850 49.535,365.000 49.323,365.000 49.197 C 365.000 49.070,365.225 48.757,365.500 48.500 C 365.775 48.243,366.000 47.978,366.000 47.911 C 366.000 47.844,366.138 47.668,366.307 47.520 C 366.475 47.371,366.664 47.044,366.727 46.792 C 366.789 46.540,366.913 46.333,367.003 46.333 C 367.093 46.333,367.167 46.200,367.167 46.037 C 367.167 45.874,367.317 45.632,367.500 45.500 C 367.683 45.368,367.833 45.194,367.833 45.113 C 367.833 45.033,368.058 44.757,368.333 44.500 C 368.608 44.243,368.833 43.930,368.833 43.803 C 368.833 43.677,368.983 43.465,369.167 43.333 C 369.350 43.201,369.500 42.960,369.500 42.797 C 369.500 42.633,369.570 42.500,369.655 42.500 C 369.741 42.500,369.863 42.335,369.927 42.133 C 370.133 41.486,370.458 41.267,370.762 41.571 C 370.906 41.715,371.093 41.833,371.179 41.833 C 371.264 41.833,371.333 41.953,371.333 42.100 C 371.333 42.246,371.558 42.576,371.833 42.833 C 372.108 43.090,372.333 43.404,372.333 43.530 C 372.333 43.656,372.483 43.868,372.667 44.000 C 372.850 44.132,373.000 44.366,373.000 44.519 C 373.000 44.672,373.113 44.841,373.250 44.894 C 373.387 44.946,373.500 45.112,373.500 45.261 C 373.500 45.411,373.725 45.743,374.000 46.000 C 374.275 46.257,374.500 46.570,374.500 46.697 C 374.500 46.823,374.650 47.035,374.833 47.167 C 375.017 47.299,375.167 47.486,375.167 47.583 C 375.167 47.680,375.317 47.868,375.500 48.000 C 375.683 48.132,375.833 48.357,375.833 48.500 C 375.833 48.643,375.983 48.868,376.167 49.000 C 376.350 49.132,376.500 49.370,376.500 49.529 C 376.500 49.688,376.688 50.006,376.917 50.235 C 377.146 50.464,377.333 50.713,377.333 50.789 C 377.333 50.865,377.483 51.035,377.667 51.167 C 377.850 51.299,378.000 51.524,378.000 51.667 C 378.000 51.810,378.150 52.035,378.333 52.167 C 378.517 52.299,378.667 52.524,378.667 52.667 C 378.667 52.810,378.817 53.035,379.000 53.167 C 379.183 53.299,379.333 53.506,379.333 53.628 C 379.333 53.750,379.521 54.023,379.750 54.235 C 379.979 54.448,380.167 54.728,380.167 54.857 C 380.167 54.987,380.317 55.201,380.500 55.333 C 380.683 55.465,380.833 55.690,380.833 55.833 C 380.833 55.976,380.983 56.201,381.167 56.333 C 381.350 56.465,381.500 56.707,381.500 56.870 C 381.500 57.033,381.564 57.167,381.641 57.167 C 381.904 57.167,382.500 57.787,382.500 58.061 C 382.500 58.211,382.574 58.333,382.663 58.333 C 382.753 58.333,382.878 58.540,382.940 58.792 C 383.002 59.044,383.191 59.371,383.360 59.520 C 383.529 59.668,383.667 59.857,383.667 59.941 C 383.667 60.025,383.817 60.201,384.000 60.333 C 384.183 60.465,384.333 60.677,384.333 60.803 C 384.333 60.930,384.558 61.243,384.833 61.500 C 385.108 61.757,385.333 62.059,385.333 62.172 C 385.333 62.285,385.473 62.499,385.643 62.647 C 385.813 62.795,386.006 63.085,386.071 63.292 C 386.136 63.498,386.259 63.667,386.345 63.667 C 386.430 63.667,386.500 63.817,386.500 64.000 C 386.500 64.328,386.611 64.333,393.250 64.333 L 400.000 64.333 400.000 63.758 C 400.000 63.366,399.867 63.049,399.583 62.765 C 399.354 62.536,399.167 62.249,399.167 62.128 C 399.167 62.006,399.017 61.799,398.833 61.667 C 398.650 61.535,398.500 61.303,398.500 61.153 C 398.500 61.003,398.313 60.739,398.083 60.567 C 397.854 60.395,397.667 60.139,397.667 59.997 C 397.667 59.856,397.517 59.632,397.333 59.500 C 397.150 59.368,397.000 59.143,397.000 59.000 C 397.000 58.857,396.850 58.632,396.667 58.500 C 396.483 58.368,396.333 58.126,396.333 57.963 C 396.333 57.800,396.270 57.667,396.192 57.667 C 395.909 57.667,395.384 57.071,395.273 56.625 C 395.211 56.373,395.087 56.167,394.997 56.167 C 394.907 56.167,394.833 56.047,394.833 55.900 C 394.833 55.754,394.608 55.424,394.333 55.167 C 394.058 54.910,393.833 54.634,393.833 54.553 C 393.833 54.473,393.683 54.299,393.500 54.167 C 393.317 54.035,393.167 53.823,393.167 53.697 C 393.167 53.570,392.954 53.268,392.695 53.025 C 392.435 52.782,392.171 52.377,392.108 52.125 C 392.045 51.873,391.920 51.667,391.830 51.667 C 391.740 51.667,391.667 51.584,391.667 51.484 C 391.667 51.383,391.442 51.090,391.167 50.833 C 390.892 50.576,390.667 50.263,390.667 50.137 C 390.667 50.010,390.517 49.799,390.333 49.667 C 390.150 49.535,390.000 49.323,390.000 49.197 C 390.000 49.070,389.786 48.767,389.523 48.522 C 389.261 48.277,388.994 47.909,388.929 47.705 C 388.864 47.501,388.741 47.333,388.655 47.333 C 388.570 47.333,388.500 47.200,388.500 47.037 C 388.500 46.874,388.350 46.632,388.167 46.500 C 387.983 46.368,387.833 46.154,387.833 46.024 C 387.833 45.779,387.220 45.167,386.974 45.167 C 386.897 45.167,386.833 45.033,386.833 44.870 C 386.833 44.707,386.683 44.465,386.500 44.333 C 386.317 44.201,386.167 43.992,386.167 43.868 C 386.167 43.744,386.073 43.538,385.958 43.411 C 385.442 42.835,385.333 42.665,385.333 42.435 C 385.333 42.300,385.183 42.142,385.000 42.083 C 384.817 42.025,384.667 41.863,384.667 41.722 C 384.667 41.582,384.442 41.257,384.167 41.000 C 383.892 40.743,383.667 40.430,383.667 40.303 C 383.667 40.177,383.517 39.965,383.333 39.833 C 383.150 39.701,383.000 39.494,383.000 39.372 C 383.000 39.250,382.813 38.977,382.583 38.765 C 382.354 38.552,382.167 38.272,382.167 38.143 C 382.167 38.013,382.017 37.799,381.833 37.667 C 381.650 37.535,381.500 37.310,381.500 37.167 C 381.500 37.024,381.350 36.799,381.167 36.667 C 380.983 36.535,380.833 36.293,380.833 36.130 C 380.833 35.967,380.770 35.833,380.692 35.833 C 380.429 35.833,379.833 35.213,379.833 34.939 C 379.833 34.789,379.760 34.667,379.670 34.667 C 379.580 34.667,379.455 34.460,379.392 34.208 C 379.329 33.956,379.065 33.551,378.805 33.308 C 378.546 33.065,378.333 32.784,378.333 32.683 C 378.333 32.582,378.258 32.500,378.167 32.500 C 378.075 32.500,378.000 32.350,378.000 32.167 C 378.000 31.983,378.075 31.833,378.167 31.833 C 378.258 31.833,378.333 31.713,378.333 31.567 C 378.333 31.420,378.546 31.102,378.805 30.859 C 379.065 30.616,379.329 30.210,379.392 29.958 C 379.455 29.706,379.580 29.500,379.670 29.500 C 379.760 29.500,379.833 29.418,379.833 29.317 C 379.833 29.216,380.058 28.924,380.333 28.667 C 380.608 28.410,380.833 28.096,380.833 27.970 C 380.833 27.844,380.983 27.632,381.167 27.500 C 381.350 27.368,381.501 27.145,381.502 27.005 C 381.502 26.865,381.720 26.579,381.985 26.370 C 382.250 26.160,382.513 25.804,382.570 25.578 C 382.627 25.352,382.747 25.167,382.837 25.167 C 382.926 25.167,383.000 25.047,383.000 24.900 C 383.000 24.754,383.225 24.424,383.500 24.167 C 383.775 23.910,384.000 23.585,384.000 23.444 C 384.000 23.304,384.150 23.142,384.333 23.083 C 384.517 23.025,384.667 22.863,384.667 22.722 C 384.667 22.582,384.879 22.268,385.139 22.025 C 385.398 21.782,385.662 21.377,385.725 21.125 C 385.788 20.873,385.913 20.667,386.003 20.667 C 386.093 20.667,386.167 20.517,386.167 20.333 C 386.167 20.150,386.230 20.000,386.308 20.000 C 386.553 20.000,387.167 19.387,387.167 19.142 C 387.167 19.013,387.317 18.799,387.500 18.667 C 387.683 18.535,387.833 18.323,387.833 18.197 C 387.833 18.070,388.048 17.767,388.310 17.522 C 388.572 17.277,388.840 16.909,388.905 16.705 C 388.969 16.501,389.092 16.333,389.178 16.333 C 389.263 16.333,389.333 16.213,389.333 16.067 C 389.333 15.920,389.558 15.590,389.833 15.333 C 390.108 15.076,390.333 14.763,390.333 14.637 C 390.333 14.510,390.483 14.299,390.667 14.167 C 390.850 14.035,391.000 13.861,391.000 13.780 C 391.000 13.700,391.212 13.435,391.472 13.192 C 391.732 12.949,391.996 12.544,392.058 12.292 C 392.121 12.040,392.247 11.833,392.337 11.833 C 392.426 11.833,392.500 11.711,392.500 11.561 C 392.500 11.287,393.096 10.667,393.359 10.667 C 393.436 10.667,393.500 10.533,393.500 10.370 C 393.500 10.207,393.650 9.965,393.833 9.833 C 394.017 9.701,394.167 9.490,394.167 9.363 C 394.167 9.237,394.392 8.924,394.667 8.667 C 394.942 8.410,395.167 8.077,395.167 7.928 C 395.167 7.778,395.279 7.613,395.417 7.560 C 395.554 7.508,395.667 7.352,395.667 7.216 C 395.667 7.079,395.892 6.757,396.167 6.500 C 396.442 6.243,396.667 5.930,396.667 5.803 C 396.667 5.677,396.817 5.465,397.000 5.333 C 397.183 5.201,397.333 5.027,397.333 4.947 C 397.333 4.866,397.546 4.602,397.805 4.359 C 398.065 4.116,398.329 3.710,398.392 3.458 C 398.455 3.206,398.580 3.000,398.670 3.000 C 398.760 3.000,398.833 2.867,398.833 2.703 C 398.833 2.540,398.983 2.299,399.167 2.167 C 400.051 1.529,399.769 1.500,392.750 1.500 C 387.379 1.500,386.000 1.544,386.000 1.713 C 386.000 1.830,385.850 2.035,385.667 2.167 C 385.483 2.299,385.333 2.524,385.333 2.667 C 385.333 2.810,385.183 3.035,385.000 3.167 C 384.817 3.299,384.667 3.510,384.667 3.637 C 384.667 3.763,384.442 4.076,384.167 4.333 C 383.892 4.590,383.667 4.855,383.667 4.922 C 383.667 4.989,383.529 5.166,383.360 5.314 C 383.191 5.462,383.002 5.790,382.940 6.042 C 382.878 6.294,382.753 6.500,382.663 6.500 C 382.574 6.500,382.500 6.620,382.500 6.766 C 382.500 6.913,382.275 7.243,382.000 7.500 C 381.725 7.757,381.500 8.033,381.500 8.113 C 381.500 8.194,381.350 8.368,381.167 8.500 C 380.983 8.632,380.833 8.857,380.833 9.000 C 380.833 9.143,380.683 9.368,380.500 9.500 C 380.317 9.632,380.167 9.842,380.167 9.965 C 380.167 10.089,380.073 10.295,379.958 10.423 C 379.481 10.955,379.333 11.160,379.333 11.290 C 379.333 11.365,379.183 11.535,379.000 11.667 C 378.817 11.799,378.667 12.024,378.667 12.167 C 378.667 12.310,378.517 12.535,378.333 12.667 C 378.150 12.799,378.000 13.010,378.000 13.137 C 378.000 13.263,377.775 13.576,377.500 13.833 C 377.225 14.090,377.000 14.383,377.000 14.484 C 377.000 14.584,376.926 14.667,376.837 14.667 C 376.747 14.667,376.622 14.873,376.560 15.125 C 376.498 15.377,376.309 15.705,376.140 15.853 C 375.971 16.001,375.833 16.228,375.833 16.358 C 375.833 16.487,375.683 16.701,375.500 16.833 C 375.317 16.965,375.167 17.139,375.167 17.220 C 375.167 17.300,374.942 17.576,374.667 17.833 C 374.392 18.090,374.167 18.393,374.167 18.506 C 374.167 18.619,374.029 18.832,373.860 18.980 C 373.691 19.129,373.502 19.456,373.440 19.708 C 373.378 19.960,373.253 20.167,373.163 20.167 C 373.074 20.167,373.000 20.249,373.000 20.350 C 373.000 20.451,372.775 20.743,372.500 21.000 C 372.225 21.257,372.000 21.570,372.000 21.697 C 372.000 21.823,371.850 22.035,371.667 22.167 C 371.483 22.299,371.333 22.508,371.333 22.632 C 371.333 22.856,370.944 23.333,370.762 23.333 C 370.710 23.333,370.667 23.200,370.667 23.037 C 370.667 22.874,370.517 22.632,370.333 22.500 C 370.150 22.368,370.000 22.130,370.000 21.971 C 370.000 21.812,369.813 21.494,369.583 21.265 C 369.354 21.036,369.167 20.787,369.167 20.711 C 369.167 20.635,369.017 20.465,368.833 20.333 C 368.650 20.201,368.500 19.976,368.500 19.833 C 368.500 19.690,368.350 19.465,368.167 19.333 C 367.983 19.201,367.833 18.976,367.833 18.833 C 367.833 18.690,367.683 18.465,367.500 18.333 C 367.317 18.201,367.167 17.994,367.167 17.872 C 367.167 17.750,366.979 17.477,366.750 17.265 C 366.521 17.052,366.333 16.772,366.333 16.643 C 366.333 16.513,366.183 16.299,366.000 16.167 C 365.817 16.035,365.667 15.810,365.667 15.667 C 365.667 15.524,365.517 15.299,365.333 15.167 C 365.150 15.035,365.000 14.798,365.000 14.641 C 365.000 14.484,364.850 14.308,364.667 14.250 C 364.483 14.192,364.333 14.033,364.333 13.898 C 364.333 13.762,364.146 13.464,363.917 13.235 C 363.688 13.006,363.500 12.688,363.500 12.529 C 363.500 12.370,363.350 12.132,363.167 12.000 C 362.983 11.868,362.833 11.631,362.833 11.474 C 362.833 11.318,362.683 11.142,362.500 11.083 C 362.317 11.025,362.167 10.863,362.167 10.722 C 362.167 10.582,361.942 10.257,361.667 10.000 C 361.392 9.743,361.167 9.441,361.167 9.328 C 361.167 9.215,361.027 9.001,360.857 8.853 C 360.687 8.705,360.494 8.415,360.429 8.208 C 360.364 8.002,360.241 7.833,360.155 7.833 C 360.070 7.833,360.000 7.700,360.000 7.537 C 360.000 7.374,359.850 7.132,359.667 7.000 C 359.483 6.868,359.333 6.656,359.333 6.530 C 359.333 6.404,359.108 6.090,358.833 5.833 C 358.558 5.576,358.333 5.300,358.333 5.220 C 358.333 5.139,358.183 4.965,358.000 4.833 C 357.817 4.701,357.667 4.460,357.667 4.297 C 357.667 4.133,357.593 4.000,357.503 4.000 C 357.413 4.000,357.289 3.794,357.227 3.542 C 357.164 3.290,356.975 2.962,356.807 2.814 C 356.638 2.666,356.500 2.427,356.500 2.283 C 356.500 2.140,356.350 1.975,356.167 1.917 C 355.983 1.858,355.833 1.741,355.833 1.655 C 355.833 1.562,353.115 1.500,349.000 1.500 L 342.167 1.500 342.167 1.880 M188.000 10.583 L 188.000 17.500 184.833 17.500 L 181.667 17.500 181.667 20.833 L 181.667 24.167 184.833 24.167 L 188.000 24.167 188.000 38.917 C 188.000 48.639,188.057 53.667,188.167 53.667 C 188.261 53.667,188.333 54.139,188.333 54.750 C 188.333 55.361,188.406 55.833,188.500 55.833 C 188.592 55.833,188.667 56.133,188.667 56.500 C 188.667 56.867,188.742 57.167,188.833 57.167 C 188.925 57.167,189.000 57.354,189.000 57.583 C 189.000 57.813,189.075 58.000,189.167 58.000 C 189.258 58.000,189.333 58.220,189.333 58.488 C 189.333 58.757,189.446 59.089,189.583 59.226 C 189.721 59.364,189.833 59.594,189.833 59.738 C 189.833 59.882,189.908 60.000,190.000 60.000 C 190.092 60.000,190.167 60.076,190.167 60.169 C 190.167 60.346,192.588 62.833,192.759 62.833 C 192.813 62.833,192.970 62.946,193.107 63.083 C 193.245 63.221,193.502 63.333,193.679 63.333 C 193.855 63.333,194.000 63.408,194.000 63.500 C 194.000 63.592,194.150 63.667,194.333 63.667 C 194.517 63.667,194.667 63.742,194.667 63.833 C 194.667 63.925,194.817 64.000,195.000 64.000 C 195.183 64.000,195.333 64.075,195.333 64.167 C 195.333 64.258,195.590 64.333,195.903 64.333 C 196.216 64.333,196.503 64.427,196.542 64.542 C 196.643 64.845,206.524 64.845,206.625 64.542 C 206.663 64.427,206.913 64.333,207.181 64.333 C 207.448 64.333,207.667 64.258,207.667 64.167 C 207.667 64.075,207.854 64.000,208.083 64.000 C 208.313 64.000,208.500 63.925,208.500 63.833 C 208.500 63.742,208.650 63.667,208.833 63.667 C 209.017 63.667,209.167 63.601,209.167 63.521 C 209.167 63.441,209.392 63.330,209.667 63.275 L 210.167 63.175 210.167 60.004 L 210.167 56.833 209.500 56.833 C 209.133 56.833,208.833 56.908,208.833 57.000 C 208.833 57.092,208.646 57.167,208.417 57.167 C 208.188 57.167,208.000 57.234,208.000 57.317 C 208.000 57.400,207.550 57.519,207.000 57.583 C 206.450 57.647,206.000 57.767,206.000 57.850 C 206.000 57.932,205.512 58.000,204.917 58.000 C 204.306 58.000,203.833 58.073,203.833 58.167 C 203.833 58.258,203.458 58.333,203.000 58.333 C 202.542 58.333,202.167 58.258,202.167 58.167 C 202.167 58.075,201.754 58.000,201.250 58.000 C 200.746 58.000,200.333 57.935,200.333 57.855 C 200.333 57.775,199.958 57.660,199.500 57.599 C 199.042 57.538,198.667 57.416,198.667 57.328 C 198.667 57.239,198.590 57.167,198.496 57.167 C 198.226 57.167,196.833 55.704,196.833 55.421 C 196.833 55.281,196.758 55.167,196.667 55.167 C 196.575 55.167,196.500 55.017,196.500 54.833 C 196.500 54.650,196.425 54.500,196.333 54.500 C 196.242 54.500,196.167 54.387,196.167 54.250 C 196.167 54.112,196.092 54.000,196.000 54.000 C 195.908 54.000,195.833 53.700,195.833 53.333 C 195.833 52.967,195.758 52.667,195.667 52.667 C 195.557 52.667,195.500 47.806,195.500 38.417 L 195.500 24.167 202.833 24.167 L 210.167 24.167 210.167 20.833 L 210.167 17.500 202.833 17.500 L 195.500 17.500 195.500 10.583 L 195.500 3.667 191.750 3.667 L 188.000 3.667 188.000 10.583 M137.667 8.500 C 137.667 8.592,138.004 8.667,138.417 8.667 C 138.829 8.667,139.167 8.742,139.167 8.833 C 139.167 8.925,139.392 9.000,139.667 9.000 C 139.942 9.000,140.167 9.075,140.167 9.167 C 140.167 9.258,140.392 9.333,140.667 9.333 C 140.942 9.333,141.167 9.408,141.167 9.500 C 141.167 9.592,141.354 9.667,141.583 9.667 C 141.813 9.667,142.000 9.742,142.000 9.833 C 142.000 9.925,142.122 10.000,142.272 10.000 C 142.422 10.000,142.666 10.138,142.814 10.307 C 142.962 10.475,143.290 10.664,143.542 10.727 C 143.794 10.789,144.000 10.913,144.000 11.003 C 144.000 11.093,144.150 11.167,144.333 11.167 C 144.517 11.167,144.667 11.239,144.667 11.328 C 144.667 11.416,144.929 11.751,145.250 12.072 C 145.571 12.393,145.833 12.754,145.833 12.874 C 145.833 12.995,145.983 13.201,146.167 13.333 C 146.350 13.465,146.500 13.670,146.500 13.787 C 146.500 13.904,146.575 14.000,146.667 14.000 C 146.758 14.000,146.833 14.150,146.833 14.333 C 146.833 14.517,146.908 14.667,147.000 14.667 C 147.092 14.667,147.167 14.892,147.167 15.167 C 147.167 15.442,147.242 15.667,147.333 15.667 C 147.425 15.667,147.500 16.004,147.500 16.417 C 147.500 16.829,147.575 17.167,147.667 17.167 C 147.759 17.167,147.833 17.611,147.833 18.167 C 147.833 18.722,147.759 19.167,147.667 19.167 C 147.575 19.167,147.500 19.579,147.500 20.083 C 147.500 20.587,147.425 21.000,147.333 21.000 C 147.242 21.000,147.167 21.225,147.167 21.500 C 147.167 21.775,147.092 22.000,147.000 22.000 C 146.908 22.000,146.833 22.150,146.833 22.333 C 146.833 22.517,146.758 22.667,146.667 22.667 C 146.575 22.667,146.500 22.817,146.500 23.000 C 146.500 23.183,146.425 23.333,146.333 23.333 C 146.242 23.333,146.167 23.416,146.167 23.516 C 146.167 23.617,145.942 23.910,145.667 24.167 C 145.392 24.424,145.167 24.754,145.167 24.900 C 145.167 25.047,145.097 25.167,145.011 25.167 C 144.926 25.167,144.808 25.317,144.750 25.500 C 144.692 25.683,144.533 25.833,144.398 25.833 C 144.262 25.833,143.964 26.021,143.735 26.250 C 143.506 26.479,143.172 26.667,142.992 26.667 C 142.813 26.667,142.667 26.742,142.667 26.833 C 142.667 26.925,142.517 27.000,142.333 27.000 C 142.150 27.000,142.000 27.075,142.000 27.167 C 142.000 27.258,141.887 27.333,141.750 27.333 C 141.612 27.333,141.500 27.408,141.500 27.500 C 141.500 27.592,141.350 27.667,141.167 27.667 C 140.983 27.667,140.833 27.742,140.833 27.833 C 140.833 27.925,140.608 28.000,140.333 28.000 C 140.058 28.000,139.833 28.075,139.833 28.167 C 139.833 28.258,139.608 28.333,139.333 28.333 C 139.058 28.333,138.833 28.408,138.833 28.500 C 138.833 28.592,138.496 28.667,138.083 28.667 C 137.671 28.667,137.333 28.742,137.333 28.833 C 137.333 28.933,136.694 29.000,135.750 29.000 C 134.806 29.000,134.167 29.067,134.167 29.167 C 134.167 29.276,130.944 29.333,124.833 29.333 L 115.500 29.333 115.500 18.833 L 115.500 8.333 126.583 8.333 C 133.861 8.333,137.667 8.391,137.667 8.500 M167.444 17.611 C 167.383 17.672,167.333 28.210,167.333 41.028 L 167.333 64.333 171.000 64.333 L 174.667 64.333 174.667 40.917 L 174.667 17.500 171.111 17.500 C 169.156 17.500,167.506 17.550,167.444 17.611 M137.000 36.000 C 137.000 36.099,137.639 36.167,138.583 36.167 C 139.528 36.167,140.167 36.234,140.167 36.333 C 140.167 36.425,140.504 36.500,140.917 36.500 C 141.329 36.500,141.667 36.575,141.667 36.667 C 141.667 36.758,141.967 36.833,142.333 36.833 C 142.700 36.833,143.000 36.908,143.000 37.000 C 143.000 37.092,143.225 37.167,143.500 37.167 C 143.775 37.167,144.000 37.242,144.000 37.333 C 144.000 37.425,144.150 37.500,144.333 37.500 C 144.517 37.500,144.667 37.575,144.667 37.667 C 144.667 37.758,144.854 37.833,145.083 37.833 C 145.313 37.833,145.500 37.908,145.500 38.000 C 145.500 38.092,145.650 38.167,145.833 38.167 C 146.017 38.167,146.167 38.240,146.167 38.330 C 146.167 38.420,146.373 38.545,146.625 38.608 C 146.877 38.671,147.282 38.935,147.525 39.195 C 147.768 39.454,148.015 39.667,148.074 39.667 C 148.259 39.667,149.000 40.475,149.000 40.676 C 149.000 40.780,149.225 41.076,149.500 41.333 C 149.775 41.590,150.000 41.883,150.000 41.984 C 150.000 42.084,150.075 42.167,150.167 42.167 C 150.258 42.167,150.333 42.317,150.333 42.500 C 150.333 42.683,150.408 42.833,150.500 42.833 C 150.592 42.833,150.667 43.052,150.667 43.319 C 150.667 43.587,150.754 43.835,150.861 43.870 C 150.998 43.916,151.056 44.694,151.056 46.500 C 151.056 48.306,150.998 49.084,150.861 49.130 C 150.754 49.165,150.667 49.413,150.667 49.681 C 150.667 49.948,150.592 50.167,150.500 50.167 C 150.408 50.167,150.333 50.317,150.333 50.500 C 150.333 50.683,150.258 50.833,150.167 50.833 C 150.075 50.833,150.000 50.929,150.000 51.047 C 150.000 51.164,149.850 51.368,149.667 51.500 C 149.483 51.632,149.333 51.838,149.333 51.958 C 149.333 52.078,149.015 52.509,148.625 52.918 C 148.235 53.326,147.745 53.849,147.536 54.080 C 147.326 54.311,147.008 54.500,146.827 54.500 C 146.647 54.500,146.500 54.575,146.500 54.667 C 146.500 54.758,146.367 54.833,146.203 54.833 C 146.040 54.833,145.799 54.983,145.667 55.167 C 145.535 55.350,145.293 55.500,145.130 55.500 C 144.967 55.500,144.833 55.575,144.833 55.667 C 144.833 55.758,144.646 55.833,144.417 55.833 C 144.188 55.833,144.000 55.908,144.000 56.000 C 144.000 56.092,143.775 56.167,143.500 56.167 C 143.225 56.167,143.000 56.242,143.000 56.333 C 143.000 56.425,142.775 56.500,142.500 56.500 C 142.225 56.500,142.000 56.575,142.000 56.667 C 142.000 56.758,141.662 56.833,141.250 56.833 C 140.837 56.833,140.500 56.908,140.500 57.000 C 140.500 57.094,140.028 57.167,139.417 57.167 C 138.806 57.167,138.333 57.239,138.333 57.333 C 138.333 57.443,134.417 57.500,126.917 57.500 L 115.500 57.500 115.500 46.667 L 115.500 35.833 126.250 35.833 C 133.306 35.833,137.000 35.891,137.000 36.000 " stroke="none" fill="#ffffff" fill-rule="evenodd"></path><path id="path1" d="" stroke="none" fill="#0000ff" fill-rule="evenodd"></path><path id="path2" d="M85.542 1.944 C 85.427 1.990,85.333 2.172,85.333 2.347 C 85.333 2.523,85.258 2.667,85.167 2.667 C 85.075 2.667,85.000 2.785,85.000 2.929 C 85.000 3.073,84.887 3.303,84.750 3.440 C 84.612 3.578,84.500 3.835,84.500 4.012 C 84.500 4.189,84.425 4.333,84.333 4.333 C 84.242 4.333,84.167 4.483,84.167 4.667 C 84.167 4.850,84.092 5.000,84.000 5.000 C 83.908 5.000,83.833 5.096,83.833 5.213 C 83.833 5.330,83.683 5.535,83.500 5.667 C 83.317 5.799,83.167 6.040,83.167 6.203 C 83.167 6.367,83.092 6.500,83.000 6.500 C 82.908 6.500,82.833 6.650,82.833 6.833 C 82.833 7.017,82.758 7.167,82.667 7.167 C 82.575 7.167,82.500 7.289,82.500 7.439 C 82.500 7.588,82.365 7.832,82.200 7.980 C 81.853 8.292,81.333 9.343,81.333 9.734 C 81.333 9.880,81.258 10.000,81.167 10.000 C 81.075 10.000,81.000 10.133,81.000 10.297 C 81.000 10.460,80.850 10.701,80.667 10.833 C 80.483 10.965,80.333 11.170,80.333 11.287 C 80.333 11.404,80.258 11.500,80.167 11.500 C 80.075 11.500,80.000 11.650,80.000 11.833 C 80.000 12.017,79.925 12.167,79.833 12.167 C 79.742 12.167,79.667 12.300,79.667 12.463 C 79.667 12.626,79.517 12.868,79.333 13.000 C 79.150 13.132,79.000 13.374,79.000 13.537 C 79.000 13.700,78.943 13.833,78.873 13.833 C 78.727 13.833,78.167 15.061,78.167 15.381 C 78.167 15.498,78.017 15.701,77.833 15.833 C 77.650 15.965,77.500 16.207,77.500 16.370 C 77.500 16.533,77.425 16.667,77.333 16.667 C 77.242 16.667,77.167 16.817,77.167 17.000 C 77.167 17.183,77.092 17.333,77.000 17.333 C 76.908 17.333,76.833 17.429,76.833 17.547 C 76.833 17.664,76.683 17.868,76.500 18.000 C 76.317 18.132,76.167 18.374,76.167 18.537 C 76.167 18.700,76.092 18.833,76.000 18.833 C 75.908 18.833,75.833 18.956,75.833 19.105 C 75.833 19.255,75.693 19.499,75.522 19.647 C 75.351 19.796,75.158 20.161,75.092 20.458 C 75.027 20.756,74.904 21.000,74.820 21.000 C 74.736 21.000,74.667 21.150,74.667 21.333 C 74.667 21.517,74.592 21.667,74.500 21.667 C 74.408 21.667,74.333 21.800,74.333 21.963 C 74.333 22.126,74.183 22.368,74.000 22.500 C 73.817 22.632,73.667 22.874,73.667 23.037 C 73.667 23.200,73.592 23.333,73.500 23.333 C 73.408 23.333,73.333 23.446,73.333 23.583 C 73.333 23.721,73.258 23.833,73.167 23.833 C 73.075 23.833,73.000 23.967,73.000 24.130 C 73.000 24.293,72.850 24.535,72.667 24.667 C 72.483 24.799,72.333 25.040,72.333 25.203 C 72.333 25.367,72.267 25.500,72.185 25.500 C 72.104 25.500,71.988 25.762,71.928 26.083 C 71.867 26.404,71.747 26.667,71.659 26.667 C 71.572 26.667,71.500 26.800,71.500 26.963 C 71.500 27.126,71.350 27.368,71.167 27.500 C 70.983 27.632,70.833 27.874,70.833 28.037 C 70.833 28.200,70.758 28.333,70.667 28.333 C 70.575 28.333,70.500 28.483,70.500 28.667 C 70.500 28.850,70.425 29.000,70.333 29.000 C 70.242 29.000,70.167 29.145,70.167 29.322 C 70.167 29.499,70.017 29.692,69.833 29.750 C 69.650 29.808,69.500 30.001,69.500 30.178 C 69.500 30.355,69.425 30.500,69.333 30.500 C 69.242 30.500,69.167 30.650,69.167 30.833 C 69.167 31.017,69.092 31.167,69.000 31.167 C 68.908 31.167,68.833 31.311,68.833 31.488 C 68.833 31.665,68.721 31.922,68.583 32.060 C 68.446 32.197,68.333 32.427,68.333 32.571 C 68.333 32.715,68.258 32.833,68.167 32.833 C 68.075 32.833,68.000 32.946,68.000 33.083 C 68.000 33.221,67.925 33.333,67.833 33.333 C 67.742 33.333,67.667 33.483,67.667 33.667 C 67.667 33.850,67.592 34.000,67.500 34.000 C 67.408 34.000,67.333 34.133,67.333 34.297 C 67.333 34.460,67.183 34.701,67.000 34.833 C 66.817 34.965,66.667 35.207,66.667 35.370 C 66.667 35.533,66.610 35.667,66.541 35.667 C 66.471 35.667,66.307 35.910,66.176 36.208 C 66.045 36.506,65.839 36.849,65.719 36.970 C 65.598 37.091,65.500 37.335,65.500 37.512 C 65.500 37.689,65.425 37.833,65.333 37.833 C 65.242 37.833,65.167 37.983,65.167 38.167 C 65.167 38.350,65.092 38.500,65.000 38.500 C 64.908 38.500,64.833 38.578,64.833 38.674 C 64.833 38.770,64.649 39.033,64.424 39.258 L 64.015 39.667 52.579 39.667 C 40.474 39.667,40.667 39.655,40.667 40.405 C 40.667 40.549,40.592 40.667,40.500 40.667 C 40.408 40.667,40.333 40.817,40.333 41.000 C 40.333 41.183,40.258 41.333,40.167 41.333 C 40.075 41.333,40.000 41.486,40.000 41.672 C 40.000 41.858,39.887 42.054,39.750 42.106 C 39.612 42.159,39.500 42.344,39.500 42.518 C 39.500 42.691,39.425 42.833,39.333 42.833 C 39.242 42.833,39.167 42.983,39.167 43.167 C 39.167 43.350,39.092 43.500,39.000 43.500 C 38.908 43.500,38.833 43.650,38.833 43.833 C 38.833 44.017,38.758 44.167,38.667 44.167 C 38.575 44.167,38.500 44.300,38.500 44.463 C 38.500 44.626,38.350 44.868,38.167 45.000 C 37.983 45.132,37.833 45.336,37.833 45.453 C 37.833 45.571,37.758 45.667,37.667 45.667 C 37.575 45.667,37.500 45.817,37.500 46.000 C 37.500 46.183,37.425 46.333,37.333 46.333 C 37.242 46.333,37.167 46.483,37.167 46.667 C 37.167 46.850,37.100 47.000,37.019 47.000 C 36.937 47.000,36.824 47.246,36.768 47.547 C 36.711 47.848,36.516 48.202,36.333 48.334 C 36.150 48.466,36.000 48.707,36.000 48.870 C 36.000 49.033,35.925 49.167,35.833 49.167 C 35.742 49.167,35.667 49.317,35.667 49.500 C 35.667 49.683,35.592 49.833,35.500 49.833 C 35.408 49.833,35.333 49.983,35.333 50.167 C 35.333 50.350,35.258 50.500,35.167 50.500 C 35.075 50.500,35.000 50.642,35.000 50.816 C 35.000 50.989,34.888 51.174,34.752 51.226 C 34.616 51.278,34.373 51.624,34.213 51.994 C 34.053 52.364,33.871 52.667,33.809 52.667 C 33.747 52.667,33.645 52.967,33.583 53.333 C 33.521 53.700,33.402 54.000,33.319 54.000 C 33.235 54.000,33.167 54.096,33.167 54.213 C 33.167 54.330,33.017 54.535,32.833 54.667 C 32.650 54.799,32.500 55.040,32.500 55.203 C 32.500 55.367,32.425 55.500,32.333 55.500 C 32.242 55.500,32.167 55.650,32.167 55.833 C 32.167 56.017,32.092 56.167,32.000 56.167 C 31.908 56.167,31.833 56.317,31.833 56.500 C 31.833 56.683,31.758 56.833,31.667 56.833 C 31.575 56.833,31.500 56.983,31.500 57.167 C 31.500 57.350,31.425 57.500,31.333 57.500 C 31.242 57.500,31.167 57.608,31.167 57.741 C 31.167 57.873,31.023 58.082,30.848 58.205 C 30.672 58.327,30.476 58.707,30.412 59.047 C 30.349 59.388,30.230 59.667,30.148 59.667 C 30.067 59.667,30.000 59.817,30.000 60.000 C 30.000 60.183,29.925 60.333,29.833 60.333 C 29.742 60.333,29.667 60.429,29.667 60.547 C 29.667 60.664,29.517 60.868,29.333 61.000 C 29.150 61.132,29.000 61.374,29.000 61.537 C 29.000 61.700,28.925 61.833,28.833 61.833 C 28.742 61.833,28.667 61.983,28.667 62.167 C 28.667 62.350,28.592 62.500,28.500 62.500 C 28.408 62.500,28.333 62.650,28.333 62.833 C 28.333 63.017,28.258 63.167,28.167 63.167 C 28.075 63.167,28.000 63.354,28.000 63.583 L 28.000 64.000 46.762 64.000 C 66.226 64.000,66.000 64.007,66.000 63.382 C 66.000 63.304,66.150 63.132,66.333 63.000 C 66.517 62.868,66.667 62.626,66.667 62.463 C 66.667 62.300,66.742 62.167,66.833 62.167 C 66.925 62.167,67.000 62.017,67.000 61.833 C 67.000 61.650,67.075 61.500,67.167 61.500 C 67.258 61.500,67.333 61.350,67.333 61.167 C 67.333 60.983,67.408 60.833,67.500 60.833 C 67.592 60.833,67.667 60.683,67.667 60.500 C 67.667 60.317,67.742 60.167,67.833 60.167 C 67.925 60.167,68.000 60.063,68.000 59.937 C 68.000 59.811,68.112 59.614,68.250 59.500 C 68.387 59.386,68.500 59.152,68.500 58.980 C 68.500 58.807,68.575 58.667,68.667 58.667 C 68.758 58.667,68.833 58.517,68.833 58.333 C 68.833 58.150,68.908 58.000,69.000 58.000 C 69.092 58.000,69.167 57.855,69.167 57.678 C 69.167 57.501,69.317 57.308,69.500 57.250 C 69.683 57.192,69.833 56.999,69.833 56.822 C 69.833 56.645,69.908 56.500,70.000 56.500 C 70.092 56.500,70.167 56.350,70.167 56.167 C 70.167 55.983,70.242 55.833,70.333 55.833 C 70.425 55.833,70.500 55.683,70.500 55.500 C 70.500 55.317,70.575 55.167,70.667 55.167 C 70.758 55.167,70.833 55.033,70.833 54.870 C 70.833 54.707,70.983 54.466,71.166 54.334 C 71.349 54.202,71.545 53.848,71.601 53.547 C 71.658 53.246,71.770 53.000,71.852 53.000 C 71.933 53.000,72.000 52.850,72.000 52.667 C 72.000 52.483,72.075 52.333,72.167 52.333 C 72.258 52.333,72.333 52.200,72.333 52.037 C 72.333 51.874,72.483 51.632,72.667 51.500 C 72.850 51.368,73.000 51.164,73.000 51.047 C 73.000 50.929,73.075 50.833,73.167 50.833 C 73.258 50.833,73.333 50.683,73.333 50.500 C 73.333 50.317,73.408 50.167,73.500 50.167 C 73.592 50.167,73.667 50.017,73.667 49.833 C 73.667 49.650,73.742 49.500,73.833 49.500 C 73.925 49.500,74.000 49.378,74.000 49.228 C 74.000 49.078,74.140 48.834,74.311 48.686 C 74.482 48.538,74.675 48.173,74.741 47.875 C 74.806 47.577,74.929 47.333,75.013 47.333 C 75.098 47.333,75.167 47.183,75.167 47.000 C 75.167 46.817,75.242 46.667,75.333 46.667 C 75.425 46.667,75.500 46.517,75.500 46.333 C 75.500 46.150,75.575 46.000,75.667 46.000 C 75.758 46.000,75.833 45.867,75.833 45.703 C 75.833 45.540,75.983 45.299,76.167 45.167 C 76.350 45.035,76.500 44.830,76.500 44.713 C 76.500 44.596,76.575 44.500,76.667 44.500 C 76.758 44.500,76.833 44.350,76.833 44.167 C 76.833 43.983,76.908 43.833,77.000 43.833 C 77.092 43.833,77.167 43.711,77.167 43.561 C 77.167 43.412,77.307 43.168,77.478 43.019 C 77.649 42.871,77.842 42.506,77.908 42.208 C 77.973 41.910,78.096 41.667,78.180 41.667 C 78.264 41.667,78.333 41.517,78.333 41.333 C 78.333 41.150,78.408 41.000,78.500 41.000 C 78.592 41.000,78.667 40.867,78.667 40.703 C 78.667 40.540,78.817 40.299,79.000 40.167 C 79.183 40.035,79.333 39.793,79.333 39.630 C 79.333 39.467,79.408 39.333,79.500 39.333 C 79.592 39.333,79.667 39.183,79.667 39.000 C 79.667 38.817,79.742 38.667,79.833 38.667 C 79.925 38.667,80.000 38.554,80.000 38.417 C 80.000 38.279,80.075 38.167,80.167 38.167 C 80.258 38.167,80.333 38.017,80.333 37.833 C 80.333 37.650,80.408 37.500,80.500 37.500 C 80.592 37.500,80.667 37.382,80.667 37.238 C 80.667 37.094,80.779 36.864,80.917 36.726 C 81.054 36.589,81.167 36.332,81.167 36.155 C 81.167 35.978,81.242 35.833,81.333 35.833 C 81.425 35.833,81.500 35.721,81.500 35.583 C 81.500 35.446,81.575 35.333,81.667 35.333 C 81.758 35.333,81.833 35.183,81.833 35.000 C 81.833 34.817,81.908 34.667,82.000 34.667 C 82.092 34.667,82.167 34.533,82.167 34.370 C 82.167 34.207,82.317 33.965,82.500 33.833 C 82.683 33.701,82.833 33.460,82.833 33.297 C 82.833 33.133,82.908 33.000,83.000 33.000 C 83.092 33.000,83.167 32.850,83.167 32.667 C 83.167 32.483,83.242 32.333,83.333 32.333 C 83.425 32.333,83.500 32.225,83.500 32.093 C 83.500 31.960,83.644 31.752,83.819 31.629 C 83.994 31.506,84.190 31.127,84.254 30.786 C 84.318 30.445,84.437 30.167,84.519 30.167 C 84.600 30.167,84.667 30.017,84.667 29.833 C 84.667 29.650,84.742 29.500,84.833 29.500 C 84.925 29.500,85.000 29.387,85.000 29.250 C 85.000 29.113,85.075 29.000,85.167 29.000 C 85.258 29.000,85.333 28.867,85.333 28.703 C 85.333 28.540,85.483 28.299,85.667 28.167 C 85.850 28.035,86.000 27.793,86.000 27.630 C 86.000 27.467,86.075 27.333,86.167 27.333 C 86.258 27.333,86.333 27.183,86.333 27.000 C 86.333 26.817,86.390 26.667,86.459 26.667 C 86.529 26.667,86.693 26.423,86.824 26.125 C 86.955 25.827,87.161 25.484,87.281 25.363 C 87.402 25.242,87.500 24.998,87.500 24.821 C 87.500 24.645,87.575 24.500,87.667 24.500 C 87.758 24.500,87.833 24.350,87.833 24.167 C 87.833 23.983,87.908 23.833,88.000 23.833 C 88.092 23.833,88.167 23.683,88.167 23.500 C 88.167 23.317,88.242 23.167,88.333 23.167 C 88.425 23.167,88.500 23.071,88.500 22.953 C 88.500 22.836,88.650 22.632,88.833 22.500 C 89.017 22.368,89.167 22.126,89.167 21.963 C 89.167 21.800,89.242 21.667,89.333 21.667 C 89.425 21.667,89.500 21.517,89.500 21.333 C 89.500 21.150,89.575 21.000,89.667 21.000 C 89.758 21.000,89.833 20.850,89.833 20.667 C 89.833 20.483,89.908 20.333,90.000 20.333 C 90.092 20.333,90.167 20.230,90.167 20.104 C 90.167 19.977,90.279 19.781,90.417 19.667 C 90.554 19.553,90.667 19.318,90.667 19.146 C 90.667 18.974,90.742 18.833,90.833 18.833 C 90.925 18.833,91.000 18.683,91.000 18.500 C 91.000 18.317,91.075 18.167,91.167 18.167 C 91.258 18.167,91.333 18.017,91.333 17.833 C 91.333 17.650,91.408 17.500,91.500 17.500 C 91.592 17.500,91.667 17.404,91.667 17.287 C 91.667 17.170,91.817 16.965,92.000 16.833 C 92.183 16.701,92.333 16.460,92.333 16.297 C 92.333 16.133,92.408 16.000,92.500 16.000 C 92.592 16.000,92.667 15.850,92.667 15.667 C 92.667 15.483,92.742 15.333,92.833 15.333 C 92.925 15.333,93.000 15.183,93.000 15.000 C 93.000 14.817,93.075 14.667,93.167 14.667 C 93.258 14.667,93.333 14.525,93.333 14.351 C 93.333 14.178,93.446 13.992,93.583 13.940 C 93.721 13.887,93.833 13.691,93.833 13.505 C 93.833 13.319,93.908 13.167,94.000 13.167 C 94.092 13.167,94.167 13.017,94.167 12.833 C 94.167 12.650,94.242 12.500,94.333 12.500 C 94.425 12.500,94.500 12.350,94.500 12.167 C 94.500 11.983,94.575 11.833,94.667 11.833 C 94.758 11.833,94.833 11.700,94.833 11.537 C 94.833 11.374,94.983 11.132,95.167 11.000 C 95.350 10.868,95.500 10.664,95.500 10.547 C 95.500 10.429,95.575 10.333,95.667 10.333 C 95.758 10.333,95.833 10.183,95.833 10.000 C 95.833 9.817,95.908 9.667,96.000 9.667 C 96.092 9.667,96.167 9.517,96.167 9.333 C 96.167 9.150,96.242 9.000,96.333 9.000 C 96.425 9.000,96.500 8.850,96.500 8.667 C 96.500 8.483,96.575 8.333,96.667 8.333 C 96.758 8.333,96.833 8.181,96.833 7.995 C 96.833 7.809,96.946 7.613,97.083 7.560 C 97.221 7.508,97.333 7.322,97.333 7.149 C 97.333 6.975,97.408 6.833,97.500 6.833 C 97.592 6.833,97.667 6.700,97.667 6.537 C 97.667 6.374,97.817 6.132,98.000 6.000 C 98.183 5.868,98.333 5.626,98.333 5.463 C 98.333 5.300,98.408 5.167,98.500 5.167 C 98.592 5.167,98.667 5.054,98.667 4.917 C 98.667 4.779,98.742 4.667,98.833 4.667 C 98.925 4.667,99.000 4.517,99.000 4.333 C 99.000 4.150,99.075 4.000,99.167 4.000 C 99.258 4.000,99.333 3.850,99.333 3.667 C 99.333 3.483,99.408 3.333,99.500 3.333 C 99.592 3.333,99.667 3.215,99.667 3.071 C 99.667 2.927,99.779 2.697,99.917 2.560 C 100.637 1.839,100.575 1.833,92.958 1.846 C 88.994 1.854,85.656 1.897,85.542 1.944 " stroke="none" fill="#5b69b1" fill-rule="evenodd"></path><path id="path3" d="" stroke="none" fill="#ff0000" fill-rule="evenodd"></path><path id="path4" d="M34.053 1.885 C 33.853 2.086,33.635 2.475,33.568 2.750 C 33.501 3.025,33.309 3.371,33.140 3.520 C 32.971 3.668,32.833 3.912,32.833 4.061 C 32.833 4.211,32.758 4.333,32.667 4.333 C 32.575 4.333,32.500 4.483,32.500 4.667 C 32.500 4.850,32.425 5.000,32.333 5.000 C 32.242 5.000,32.167 5.112,32.167 5.250 C 32.167 5.388,32.092 5.500,32.000 5.500 C 31.908 5.500,31.833 5.650,31.833 5.833 C 31.833 6.017,31.758 6.167,31.667 6.167 C 31.575 6.167,31.500 6.300,31.500 6.463 C 31.500 6.626,31.350 6.868,31.167 7.000 C 30.983 7.132,30.833 7.374,30.833 7.537 C 30.833 7.700,30.764 7.833,30.680 7.833 C 30.596 7.833,30.473 8.077,30.408 8.375 C 30.342 8.673,30.149 9.038,29.978 9.186 C 29.807 9.334,29.667 9.626,29.667 9.833 C 29.667 10.041,29.530 10.332,29.362 10.480 C 29.195 10.629,28.952 10.994,28.822 11.292 C 28.692 11.590,28.529 11.833,28.459 11.833 C 28.390 11.833,28.333 11.949,28.333 12.090 C 28.333 12.232,28.183 12.508,28.000 12.705 C 27.817 12.902,27.667 13.161,27.667 13.281 C 27.667 13.402,27.600 13.500,27.519 13.500 C 27.437 13.500,27.321 13.762,27.261 14.083 C 27.201 14.404,27.080 14.667,26.992 14.667 C 26.905 14.667,26.833 14.817,26.833 15.000 C 26.833 15.183,26.758 15.333,26.667 15.333 C 26.575 15.333,26.500 15.483,26.500 15.667 C 26.500 15.850,26.425 16.000,26.333 16.000 C 26.242 16.000,26.167 16.133,26.167 16.297 C 26.167 16.460,26.017 16.701,25.833 16.833 C 25.650 16.965,25.500 17.170,25.500 17.287 C 25.500 17.404,25.434 17.500,25.353 17.500 C 25.167 17.500,24.000 19.847,24.000 20.221 C 24.000 20.374,23.925 20.500,23.833 20.500 C 23.742 20.500,23.667 20.612,23.667 20.750 C 23.667 20.887,23.592 21.000,23.500 21.000 C 23.408 21.000,23.333 21.133,23.333 21.297 C 23.333 21.460,23.183 21.701,23.000 21.833 C 22.817 21.965,22.667 22.207,22.667 22.370 C 22.667 22.533,22.592 22.667,22.500 22.667 C 22.408 22.667,22.333 22.817,22.333 23.000 C 22.333 23.183,22.258 23.333,22.167 23.333 C 22.075 23.333,22.000 23.434,22.000 23.558 C 22.000 23.681,21.850 23.917,21.667 24.083 C 21.483 24.249,21.333 24.552,21.333 24.755 C 21.333 24.959,21.221 25.219,21.083 25.333 C 20.946 25.447,20.833 25.682,20.833 25.854 C 20.833 26.026,20.758 26.167,20.667 26.167 C 20.575 26.167,20.500 26.279,20.500 26.417 C 20.500 26.554,20.425 26.667,20.333 26.667 C 20.242 26.667,20.167 26.800,20.167 26.963 C 20.167 27.126,20.017 27.368,19.833 27.500 C 19.650 27.632,19.500 27.874,19.500 28.037 C 19.500 28.200,19.425 28.333,19.333 28.333 C 19.242 28.333,19.167 28.483,19.167 28.667 C 19.167 28.850,19.092 29.000,19.000 29.000 C 18.908 29.000,18.833 29.150,18.833 29.333 C 18.833 29.517,18.758 29.667,18.667 29.667 C 18.575 29.667,18.500 29.775,18.500 29.907 C 18.500 30.040,18.356 30.248,18.181 30.371 C 18.006 30.494,17.810 30.873,17.746 31.214 C 17.682 31.555,17.563 31.833,17.481 31.833 C 17.400 31.833,17.333 31.967,17.333 32.130 C 17.333 32.293,17.183 32.535,17.000 32.667 C 16.817 32.799,16.667 33.003,16.667 33.120 C 16.667 33.237,16.592 33.333,16.500 33.333 C 16.408 33.333,16.333 33.483,16.333 33.667 C 16.333 33.850,16.258 34.000,16.167 34.000 C 16.075 34.000,16.000 34.150,16.000 34.333 C 16.000 34.517,15.925 34.667,15.833 34.667 C 15.742 34.667,15.667 34.817,15.667 35.000 C 15.667 35.183,15.592 35.333,15.500 35.333 C 15.408 35.333,15.333 35.434,15.333 35.558 C 15.333 35.681,15.185 35.916,15.003 36.080 C 14.822 36.245,14.626 36.631,14.568 36.940 C 14.510 37.248,14.396 37.500,14.315 37.500 C 14.233 37.500,14.167 37.622,14.167 37.772 C 14.167 37.922,14.030 38.166,13.862 38.314 C 13.695 38.462,13.452 38.827,13.322 39.125 C 13.192 39.423,13.029 39.667,12.959 39.667 C 12.890 39.667,12.833 39.817,12.833 40.000 C 12.833 40.183,12.758 40.333,12.667 40.333 C 12.575 40.333,12.500 40.483,12.500 40.667 C 12.500 40.850,12.425 41.000,12.333 41.000 C 12.242 41.000,12.167 41.133,12.167 41.297 C 12.167 41.460,12.019 41.699,11.839 41.829 C 11.660 41.959,11.462 42.294,11.400 42.574 C 11.339 42.854,11.149 43.204,10.978 43.353 C 10.807 43.501,10.667 43.792,10.667 44.000 C 10.667 44.208,10.530 44.499,10.362 44.647 C 10.195 44.795,9.952 45.160,9.822 45.458 C 9.692 45.756,9.529 46.000,9.459 46.000 C 9.390 46.000,9.333 46.150,9.333 46.333 C 9.333 46.517,9.258 46.667,9.167 46.667 C 9.075 46.667,9.000 46.800,9.000 46.963 C 9.000 47.126,8.850 47.368,8.667 47.499 C 8.484 47.631,8.289 47.985,8.232 48.286 C 8.176 48.587,8.063 48.833,7.981 48.833 C 7.900 48.833,7.833 48.983,7.833 49.167 C 7.833 49.350,7.758 49.500,7.667 49.500 C 7.575 49.500,7.500 49.650,7.500 49.833 C 7.500 50.017,7.425 50.167,7.333 50.167 C 7.242 50.167,7.167 50.300,7.167 50.463 C 7.167 50.626,7.017 50.868,6.833 51.000 C 6.650 51.132,6.500 51.336,6.500 51.453 C 6.500 51.571,6.425 51.667,6.333 51.667 C 6.242 51.667,6.167 51.800,6.167 51.963 C 6.167 52.126,6.017 52.368,5.833 52.500 C 5.650 52.632,5.500 52.874,5.500 53.037 C 5.500 53.200,5.433 53.333,5.352 53.333 C 5.270 53.333,5.155 53.596,5.094 53.917 C 5.034 54.237,4.913 54.500,4.826 54.500 C 4.738 54.500,4.667 54.650,4.667 54.833 C 4.667 55.017,4.592 55.167,4.500 55.167 C 4.408 55.167,4.333 55.300,4.333 55.463 C 4.333 55.626,4.183 55.868,4.000 56.000 C 3.817 56.132,3.667 56.374,3.667 56.537 C 3.667 56.700,3.592 56.833,3.500 56.833 C 3.408 56.833,3.333 56.983,3.333 57.167 C 3.333 57.350,3.258 57.500,3.167 57.500 C 3.075 57.500,3.000 57.612,3.000 57.749 C 3.000 57.885,2.850 58.091,2.667 58.205 C 2.470 58.328,2.333 58.594,2.333 58.853 C 2.333 59.095,2.221 59.386,2.083 59.500 C 1.946 59.614,1.833 59.848,1.833 60.020 C 1.833 60.193,1.758 60.333,1.667 60.333 C 1.575 60.333,1.500 60.446,1.500 60.583 C 1.500 60.721,1.425 60.833,1.333 60.833 C 1.242 60.833,1.167 60.967,1.167 61.130 C 1.167 61.293,1.017 61.535,0.833 61.667 C 0.650 61.799,0.500 62.034,0.500 62.190 C 0.500 62.345,0.424 62.498,0.330 62.529 C -0.124 62.680,-0.066 64.333,0.393 64.333 C 0.635 64.333,0.833 64.258,0.833 64.167 C 0.833 64.058,3.226 64.000,7.679 64.000 C 14.739 64.000,15.000 63.977,15.000 63.345 C 15.000 63.247,15.075 63.167,15.167 63.167 C 15.258 63.167,15.333 63.033,15.333 62.870 C 15.333 62.707,15.483 62.465,15.667 62.333 C 15.850 62.201,16.000 61.960,16.000 61.797 C 16.000 61.633,16.075 61.500,16.167 61.500 C 16.258 61.500,16.333 61.350,16.333 61.167 C 16.333 60.983,16.408 60.833,16.500 60.833 C 16.592 60.833,16.667 60.683,16.667 60.500 C 16.667 60.317,16.742 60.167,16.833 60.167 C 16.925 60.167,17.000 60.063,17.000 59.937 C 17.000 59.811,17.113 59.614,17.250 59.500 C 17.388 59.386,17.500 59.152,17.500 58.980 C 17.500 58.807,17.575 58.667,17.667 58.667 C 17.758 58.667,17.833 58.544,17.833 58.395 C 17.833 58.245,17.970 58.001,18.138 57.853 C 18.305 57.705,18.548 57.340,18.678 57.042 C 18.808 56.744,18.971 56.500,19.041 56.500 C 19.110 56.500,19.167 56.350,19.167 56.167 C 19.167 55.983,19.242 55.833,19.333 55.833 C 19.425 55.833,19.500 55.700,19.500 55.537 C 19.500 55.374,19.650 55.132,19.833 55.000 C 20.017 54.868,20.167 54.626,20.167 54.463 C 20.167 54.300,20.236 54.167,20.320 54.167 C 20.404 54.167,20.527 53.923,20.592 53.625 C 20.658 53.327,20.851 52.962,21.022 52.814 C 21.193 52.666,21.333 52.422,21.333 52.272 C 21.333 52.122,21.408 52.000,21.500 52.000 C 21.592 52.000,21.667 51.850,21.667 51.667 C 21.667 51.483,21.742 51.333,21.833 51.333 C 21.925 51.333,22.000 51.221,22.000 51.085 C 22.000 50.948,22.150 50.742,22.333 50.628 C 22.517 50.513,22.667 50.288,22.667 50.127 C 22.667 49.965,22.742 49.833,22.833 49.833 C 22.925 49.833,23.000 49.683,23.000 49.500 C 23.000 49.317,23.075 49.167,23.167 49.167 C 23.258 49.167,23.333 49.017,23.333 48.833 C 23.333 48.650,23.408 48.500,23.500 48.500 C 23.592 48.500,23.667 48.348,23.667 48.161 C 23.667 47.975,23.779 47.780,23.917 47.727 C 24.054 47.674,24.167 47.489,24.167 47.316 C 24.167 47.142,24.242 47.000,24.333 47.000 C 24.425 47.000,24.500 46.850,24.500 46.667 C 24.500 46.483,24.575 46.333,24.667 46.333 C 24.758 46.333,24.833 46.211,24.833 46.061 C 24.833 45.912,24.970 45.668,25.138 45.520 C 25.305 45.371,25.548 45.006,25.678 44.708 C 25.808 44.410,25.971 44.167,26.041 44.167 C 26.110 44.167,26.167 44.017,26.167 43.833 C 26.167 43.650,26.242 43.500,26.333 43.500 C 26.425 43.500,26.500 43.382,26.500 43.238 C 26.500 43.094,26.613 42.864,26.750 42.726 C 26.887 42.589,27.000 42.332,27.000 42.155 C 27.000 41.978,27.075 41.833,27.167 41.833 C 27.258 41.833,27.333 41.737,27.333 41.620 C 27.333 41.503,27.483 41.299,27.667 41.167 C 27.850 41.035,28.000 40.793,28.000 40.630 C 28.000 40.467,28.075 40.333,28.167 40.333 C 28.258 40.333,28.333 40.183,28.333 40.000 C 28.333 39.817,28.408 39.667,28.500 39.667 C 28.592 39.667,28.667 39.517,28.667 39.333 C 28.667 39.150,28.742 39.000,28.833 39.000 C 28.925 39.000,29.000 38.887,29.000 38.750 C 29.000 38.612,29.066 38.500,29.147 38.500 C 29.331 38.500,30.167 36.814,30.167 36.442 C 30.167 36.290,30.242 36.167,30.333 36.167 C 30.425 36.167,30.500 36.022,30.500 35.845 C 30.500 35.667,30.650 35.475,30.833 35.417 C 31.017 35.358,31.167 35.166,31.167 34.989 C 31.167 34.812,31.242 34.667,31.333 34.667 C 31.425 34.667,31.500 34.517,31.500 34.333 C 31.500 34.150,31.575 34.000,31.667 34.000 C 31.758 34.000,31.833 33.867,31.833 33.703 C 31.833 33.540,31.983 33.299,32.167 33.167 C 32.350 33.035,32.500 32.793,32.500 32.630 C 32.500 32.467,32.557 32.333,32.627 32.333 C 32.773 32.333,33.333 31.105,33.333 30.786 C 33.333 30.669,33.483 30.465,33.667 30.333 C 33.850 30.201,34.000 29.960,34.000 29.797 C 34.000 29.633,34.075 29.500,34.167 29.500 C 34.258 29.500,34.333 29.404,34.333 29.287 C 34.333 29.170,34.483 28.965,34.667 28.833 C 34.850 28.701,35.000 28.460,35.000 28.297 C 35.000 28.133,35.075 28.000,35.167 28.000 C 35.258 28.000,35.333 27.850,35.333 27.667 C 35.333 27.483,35.408 27.333,35.500 27.333 C 35.592 27.333,35.667 27.183,35.667 27.000 C 35.667 26.817,35.742 26.667,35.833 26.667 C 35.925 26.667,36.000 26.554,36.000 26.417 C 36.000 26.197,37.399 26.167,47.595 26.167 C 59.870 26.167,59.667 26.179,59.667 25.429 C 59.667 25.285,59.742 25.167,59.833 25.167 C 59.925 25.167,60.000 25.017,60.000 24.833 C 60.000 24.650,60.075 24.500,60.167 24.500 C 60.258 24.500,60.333 24.350,60.333 24.167 C 60.333 23.983,60.408 23.833,60.500 23.833 C 60.592 23.833,60.667 23.701,60.667 23.540 C 60.667 23.379,60.817 23.153,61.000 23.039 C 61.183 22.924,61.333 22.719,61.333 22.582 C 61.333 22.445,61.402 22.333,61.485 22.333 C 61.569 22.333,61.686 22.047,61.745 21.697 C 61.804 21.346,61.998 20.955,62.176 20.826 C 62.354 20.698,62.500 20.460,62.500 20.297 C 62.500 20.133,62.575 20.000,62.667 20.000 C 62.758 20.000,62.833 19.887,62.833 19.750 C 62.833 19.612,62.908 19.500,63.000 19.500 C 63.092 19.500,63.167 19.350,63.167 19.167 C 63.167 18.983,63.242 18.833,63.333 18.833 C 63.425 18.833,63.500 18.683,63.500 18.500 C 63.500 18.317,63.575 18.167,63.667 18.167 C 63.758 18.167,63.833 18.017,63.833 17.833 C 63.833 17.650,63.908 17.500,64.000 17.500 C 64.092 17.500,64.167 17.399,64.167 17.276 C 64.167 17.153,64.315 16.917,64.497 16.753 C 64.678 16.589,64.874 16.202,64.932 15.894 C 64.990 15.586,65.104 15.333,65.185 15.333 C 65.267 15.333,65.333 15.200,65.333 15.037 C 65.333 14.874,65.483 14.632,65.667 14.500 C 65.850 14.368,66.000 14.164,66.000 14.047 C 66.000 13.929,66.075 13.833,66.167 13.833 C 66.258 13.833,66.333 13.683,66.333 13.500 C 66.333 13.317,66.408 13.167,66.500 13.167 C 66.592 13.167,66.667 13.017,66.667 12.833 C 66.667 12.650,66.742 12.500,66.833 12.500 C 66.925 12.500,67.000 12.350,67.000 12.167 C 67.000 11.983,67.075 11.833,67.167 11.833 C 67.258 11.833,67.333 11.683,67.333 11.500 C 67.333 11.317,67.408 11.167,67.500 11.167 C 67.592 11.167,67.667 11.066,67.667 10.942 C 67.667 10.819,67.815 10.584,67.997 10.420 C 68.178 10.255,68.374 9.869,68.432 9.560 C 68.490 9.252,68.604 9.000,68.685 9.000 C 68.767 9.000,68.833 8.867,68.833 8.703 C 68.833 8.540,68.983 8.299,69.167 8.167 C 69.350 8.035,69.500 7.772,69.500 7.583 C 69.500 7.395,69.650 7.132,69.833 7.000 C 70.017 6.868,70.167 6.626,70.167 6.463 C 70.167 6.300,70.242 6.167,70.333 6.167 C 70.425 6.167,70.500 6.017,70.500 5.833 C 70.500 5.650,70.575 5.500,70.667 5.500 C 70.758 5.500,70.833 5.368,70.833 5.207 C 70.833 5.045,70.980 4.822,71.158 4.711 C 71.337 4.599,71.533 4.243,71.594 3.920 C 71.654 3.598,71.770 3.333,71.852 3.333 C 71.933 3.333,72.000 3.183,72.000 3.000 C 72.000 2.817,72.075 2.667,72.167 2.667 C 72.258 2.667,72.333 2.404,72.333 2.083 L 72.333 1.500 53.375 1.510 L 34.417 1.520 34.053 1.885 " stroke="none" fill="#ea6668" fill-rule="evenodd"></path></g></svg>