<svg viewBox="0, 0, 264,100" xmlns="http://www.w3.org/2000/svg"><g id="svgg"><path id="path0" d="m26.06606,0.83421c0,0.415 1.585,3.246 3.519,6.286c0.315,0.495 0.476,0.9 0.357,0.9c-0.118,0 -1.243,-1.62 -2.498,-3.6c-1.255,-1.98 -2.548,-3.6 -2.873,-3.6c-0.812,0 -0.602,0.426 2.78,5.643c3.603,5.559 3.602,5.557 3.396,5.557c-0.092,0 -1.83,-2.508 -3.863,-5.573c-2.502,-3.773 -3.876,-5.503 -4.255,-5.358c-0.659,0.253 -0.914,-0.214 3.517,6.431c4.636,6.952 4.217,6.782 -0.737,-0.3c-3.399,-4.86 -4.943,-6.505 -4.943,-5.268c0,0.296 4.907,7.4 8.681,12.568c0.763,1.045 1.3,1.9 1.194,1.9c-0.107,0 -2.57,-3.24 -5.475,-7.2c-2.905,-3.96 -5.432,-7.2 -5.617,-7.2c-0.999,0 -0.231,1.286 4.86,8.144c3.069,4.135 5.423,7.421 5.231,7.301c-0.193,-0.119 -2.841,-3.463 -5.885,-7.431c-4.744,-6.184 -6.589,-8.13 -6.589,-6.95c0,0.263 1.632,2.47 7.198,9.736c4.031,5.261 2.23,3.346 -3.197,-3.4c-4.103,-5.1 -5.601,-6.56 -5.601,-5.458c0,0.22 2.346,3.293 5.214,6.829c2.867,3.536 5.127,6.429 5.022,6.429c-0.105,0 -2.647,-2.88 -5.648,-6.4c-5.102,-5.984 -6.434,-7.249 -6.117,-5.813c0.071,0.323 2.965,3.923 6.432,8c3.466,4.077 6.227,7.413 6.136,7.413c-0.092,0 -3.086,-3.285 -6.654,-7.3c-5.997,-6.748 -7.585,-8.242 -7.585,-7.135c0,0.233 3.062,3.846 6.805,8.03c3.743,4.183 6.727,7.605 6.63,7.605c-0.096,0 -3.37,-3.424 -7.275,-7.61c-4.853,-5.2 -7.231,-7.479 -7.511,-7.199c-0.28,0.28 0.032,0.885 0.987,1.91c0.769,0.824 3.987,4.289 7.152,7.699l5.755,6.2l-7.427,-7.351c-4.83,-4.781 -7.598,-7.246 -7.916,-7.049c-0.327,0.202 1.809,2.603 6.451,7.251c3.817,3.822 6.764,6.949 6.549,6.949c-0.215,0 -3.388,-2.993 -7.051,-6.651c-4.329,-4.324 -6.831,-6.545 -7.149,-6.349c-0.327,0.202 1.943,2.756 6.855,7.712l7.345,7.409l-7.589,-7.052c-5.207,-4.839 -7.717,-6.922 -8,-6.639c-0.282,0.283 1.096,1.816 4.389,4.882c9.163,8.533 10.358,9.935 2.646,3.104c-5.52,-4.891 -7.877,-6.745 -8.183,-6.439c-0.305,0.305 -0.261,0.582 0.154,0.962c0.321,0.294 3.778,3.369 7.683,6.833c3.905,3.464 7.1,6.372 7.1,6.461c0,0.089 -3.428,-2.762 -7.618,-6.336c-8.034,-6.852 -8.382,-7.108 -8.382,-6.176c0,0.322 3.33,3.416 7.4,6.874c4.07,3.457 7.4,6.364 7.4,6.459c0,0.153 -6.212,-4.821 -12.953,-10.37c-1.668,-1.373 -2.478,-1.813 -2.78,-1.511c-0.268,0.268 -0.285,0.552 -0.047,0.763c0.209,0.185 3.215,2.626 6.68,5.425c7.679,6.203 8.224,6.923 1,1.321c-8.502,-6.594 -8.179,-6.374 -8.422,-5.742c-0.144,0.375 1.974,2.252 6.353,5.63c3.613,2.787 6.569,5.141 6.569,5.231c0,0.09 -2.925,-1.988 -6.5,-4.617c-3.575,-2.629 -6.635,-4.781 -6.8,-4.782c-1.219,-0.008 0.582,1.689 6.1,5.748c3.52,2.59 6.4,4.8 6.4,4.913c0,0.113 -0.855,-0.419 -1.9,-1.182c-5.628,-4.108 -11.128,-7.787 -11.396,-7.622c-0.696,0.431 -0.011,1.027 6.096,5.304c3.52,2.465 6.4,4.561 6.4,4.657c0,0.096 -2.788,-1.714 -6.194,-4.023c-3.407,-2.308 -6.377,-4.197 -6.6,-4.197c-1.315,0 0.241,1.416 5.021,4.569c2.976,1.963 5.503,3.717 5.615,3.898c0.111,0.181 -2.346,-1.301 -5.462,-3.293c-3.115,-1.993 -5.757,-3.53 -5.871,-3.416c-0.535,0.535 0.541,1.46 4.843,4.165c2.556,1.608 4.648,3.024 4.648,3.146c0,0.123 -0.444,-0.068 -0.986,-0.423c-1.934,-1.267 -8.245,-5.046 -8.428,-5.046c-1.079,0 0.471,1.543 3.214,3.2c1.87,1.13 3.4,2.149 3.4,2.265c0,0.191 -1.769,-0.776 -5,-2.735c-1.446,-0.876 -1.8,-0.909 -1.8,-0.164c0,0.311 1.17,1.219 2.6,2.019c1.43,0.8 2.6,1.551 2.6,1.669c0,0.118 -1.17,-0.439 -2.6,-1.239c-2.331,-1.304 -2.6,-1.374 -2.6,-0.683c0,0.481 0.455,0.959 1.209,1.272c0.664,0.275 1.314,0.672 1.444,0.881c0.129,0.21 -0.316,0.096 -0.989,-0.252c-1.51,-0.781 -1.664,-0.784 -1.664,-0.038c0,0.336 1.22,1.209 2.8,2.005c1.54,0.776 2.8,1.5 2.8,1.611c0,0.11 -1.075,-0.342 -2.389,-1.005c-2.735,-1.381 -2.811,-1.399 -2.811,-0.655c0,0.304 0.544,0.777 1.209,1.053c0.664,0.275 1.314,0.672 1.444,0.881c0.129,0.21 -0.316,0.096 -0.989,-0.252c-1.559,-0.806 -1.632,-0.797 -1.38,0.167c0.115,0.44 0.351,0.8 0.525,0.8c0.174,0 0.219,0.371 0.101,0.824c-0.162,0.62 0.014,0.883 0.716,1.067c0.821,0.215 0.845,0.274 0.204,0.499c-0.621,0.217 -0.648,0.341 -0.179,0.842c0.302,0.323 0.604,0.853 0.671,1.178c0.067,0.324 0.353,0.77 0.635,0.99c0.282,0.22 0.451,0.585 0.375,0.811c-0.338,1 2.208,2.937 5.776,4.393c2.04,0.832 3.645,1.576 3.568,1.654c-0.078,0.077 -1.207,-0.287 -2.509,-0.81c-3.295,-1.324 -4.316,-1.613 -4.022,-1.137c0.135,0.219 2.145,1.161 4.466,2.094c2.322,0.933 4.158,1.759 4.08,1.837c-0.077,0.077 -1.722,-0.48 -3.655,-1.239c-1.998,-0.784 -3.312,-1.135 -3.044,-0.812c0.259,0.312 1.271,0.872 2.248,1.246c1.928,0.736 2.211,1.25 0.315,0.572c-1.102,-0.395 -1.118,-0.384 -0.355,0.228c0.44,0.353 1.295,0.822 1.9,1.041c0.604,0.22 1.019,0.53 0.921,0.688c-0.232,0.376 3.69,2.292 6.765,3.305c3.314,1.092 11.506,1.374 14.614,0.504c3.02,-0.846 2.868,-0.798 4.126,-1.314c0.619,-0.253 1.229,-0.461 1.355,-0.461c0.826,0 7.147,-4.767 8.858,-6.681c1.141,-1.275 2.315,-2.589 2.608,-2.919c6.029,-6.782 6.585,-21.514 1.163,-30.781c-1.449,-2.478 -7.281,-8.819 -8.11,-8.819c-0.849,0 -1.01,-0.074 -1.305,-0.602c-0.536,-0.958 -2.791,-1.888 -3.162,-1.304c-0.232,0.366 -0.322,0.312 -0.327,-0.194c-0.006,-0.667 -0.159,-0.768 -1.306,-0.86c-0.275,-0.022 -0.738,-0.265 -1.029,-0.54c-0.757,-0.716 -1.279,-0.616 -1.046,0.2c0.11,0.385 -0.013,0.295 -0.274,-0.2c-0.26,-0.495 -0.728,-0.9 -1.039,-0.9c-0.392,0 -0.492,0.277 -0.324,0.9c0.196,0.73 0.122,0.692 -0.386,-0.2c-0.98,-1.718 -2.221,-1.514 -1.38,0.226c0.412,0.853 0.407,0.855 -0.186,0.074c-1.966,-2.584 -2.401,-2.089 -0.852,0.968c1.443,2.848 0.937,2.545 -0.616,-0.368c-0.704,-1.32 -1.524,-2.4 -1.824,-2.4c-0.784,0 -0.717,0.217 1.066,3.466c2.165,3.944 1.728,3.746 -0.586,-0.266c-1.015,-1.76 -2.111,-3.2 -2.435,-3.2c-0.657,0 -0.765,0.443 -0.249,1.02c0.532,0.594 3.035,5.22 2.625,4.851c-0.201,-0.181 -1.092,-1.518 -1.979,-2.972c-1.54,-2.519 -2.586,-3.525 -2.586,-2.485m5.651,9.786l0.393,0.8l-0.651,-0.8c-0.359,-0.44 -0.828,-1.16 -1.044,-1.6l-0.393,-0.8l0.651,0.8c0.359,0.44 0.828,1.16 1.044,1.6m-0.851,3.8c0.47,0.66 0.764,1.2 0.654,1.2c-0.11,0 -0.584,-0.54 -1.054,-1.2c-0.47,-0.66 -0.764,-1.2 -0.654,-1.2c0.11,0 0.584,0.54 1.054,1.2m-2.575,8.1l1.175,1.3l-1.3,-1.175c-0.715,-0.646 -1.3,-1.231 -1.3,-1.3c0,-0.309 0.33,-0.037 1.425,1.175m-0.425,1.5c0.859,0.88 1.472,1.6 1.362,1.6c-0.11,0 -0.903,-0.72 -1.762,-1.6c-0.859,-0.88 -1.472,-1.6 -1.362,-1.6c0.11,0 0.903,0.72 1.762,1.6m-0.2,1.8c0.746,0.77 1.267,1.4 1.157,1.4c-0.11,0 -0.811,-0.63 -1.557,-1.4c-0.746,-0.77 -1.267,-1.4 -1.157,-1.4c0.11,0 0.811,0.63 1.557,1.4m-1.8,1.8c0.859,0.88 1.472,1.6 1.362,1.6c-0.11,0 -0.903,-0.72 -1.762,-1.6c-0.859,-0.88 -1.472,-1.6 -1.362,-1.6c0.11,0 0.903,0.72 1.762,1.6m-1.8,0.2c0.746,0.77 1.267,1.4 1.157,1.4c-0.11,0 -0.811,-0.63 -1.557,-1.4c-0.746,-0.77 -1.267,-1.4 -1.157,-1.4c0.11,0 0.811,0.63 1.557,1.4m-15.6,6.021c0,0.11 -0.54,-0.08 -1.2,-0.421c-0.66,-0.341 -1.2,-0.711 -1.2,-0.821c0,-0.11 0.54,0.08 1.2,0.421c0.66,0.341 1.2,0.711 1.2,0.821m-1.6,0.795c0,0.11 -0.72,-0.167 -1.6,-0.616c-0.88,-0.449 -1.6,-0.906 -1.6,-1.016c0,-0.11 0.72,0.167 1.6,0.616c0.88,0.449 1.6,0.906 1.6,1.016m20.5,2.545c2.585,2.041 4.7,3.792 4.7,3.89c0,0.279 -9.564,-7.12 -10.111,-7.824c-0.654,-0.839 -0.375,-0.636 5.411,3.934m4.2,0.579c2.475,2.168 4.5,4.016 4.5,4.108c0,0.092 -2.34,-1.834 -5.2,-4.278c-2.86,-2.445 -5.2,-4.54 -5.2,-4.657c0,-0.296 0.778,0.341 5.9,4.827m-0.5,-1.896c2.76,2.617 2.85,2.74 0.654,0.895c-1.4,-1.176 -3.02,-2.538 -3.6,-3.025c-0.579,-0.487 -0.874,-0.889 -0.654,-0.894c0.22,-0.005 1.84,1.356 3.6,3.024m3.8,1.995c2.16,2.244 1.907,2.068 -1.5,-1.039c-2.255,-2.057 -4.1,-3.813 -4.1,-3.903c0,-0.377 3.183,2.433 5.6,4.942m1.4,-0.199l4,4.094l-4.7,-4.356c-2.585,-2.396 -4.7,-4.412 -4.7,-4.481c0,-0.496 1.983,1.246 5.4,4.743m-9.5,0.486c2.255,1.75 4.1,3.269 4.1,3.377c0,0.107 -0.225,0.021 -0.5,-0.192c-0.275,-0.213 -2.705,-2.041 -5.4,-4.061c-2.695,-2.021 -4.9,-3.771 -4.9,-3.89c0,-0.305 1.986,1.107 6.7,4.766m2.525,-0.905c6.246,5.259 6.118,5.441 -0.225,0.316c-2.75,-2.222 -5,-4.107 -5,-4.188c0,-0.439 0.87,0.206 5.225,3.872m6.375,-1.821c1.195,1.21 1.993,2.2 1.773,2.2c-0.22,0 -1.378,-0.99 -2.573,-2.2c-1.195,-1.21 -1.993,-2.2 -1.773,-2.2c0.22,0 1.378,0.99 2.573,2.2m2.59,1.35l2.791,3.05l-3.091,-2.99c-1.699,-1.644 -3.09,-3.039 -3.09,-3.1c0,-0.471 0.996,0.422 3.39,3.04m-12.198,2.258c3.084,2.304 5.608,4.27 5.608,4.37c0,0.1 -2.88,-1.892 -6.4,-4.427c-5.926,-4.267 -7.58,-5.61 -5.608,-4.555c0.436,0.233 3.316,2.308 6.4,4.612m12.608,-3.408c0.859,0.88 1.472,1.6 1.362,1.6c-0.11,0 -0.903,-0.72 -1.762,-1.6c-0.859,-0.88 -1.472,-1.6 -1.362,-1.6c0.11,0 0.903,0.72 1.762,1.6m-14.5,3.496c3.245,2.295 5.9,4.253 5.9,4.352c0,0.278 -11.297,-7.466 -12.2,-8.363c-1.251,-1.243 -0.048,-0.477 6.3,4.011m-1.491,0.349c2.745,1.874 4.991,3.482 4.991,3.573c0,0.249 -10.509,-6.604 -11.2,-7.304c-1.065,-1.078 0.849,0.072 6.209,3.731m18.191,-2.845c0.746,0.77 1.267,1.4 1.157,1.4c-0.11,0 -0.811,-0.63 -1.557,-1.4c-0.746,-0.77 -1.267,-1.4 -1.157,-1.4c0.11,0 0.811,0.63 1.557,1.4m-17.9,4.455c3.465,2.268 6.3,4.225 6.3,4.349c0,0.124 -1.035,-0.469 -2.3,-1.317c-1.265,-0.849 -4.418,-2.857 -7.006,-4.463c-2.589,-1.606 -4.815,-3.097 -4.948,-3.312c-0.384,-0.621 1.215,0.332 7.954,4.743m-4.412,-1.424c2.482,1.556 4.692,3.029 4.912,3.273c0.22,0.243 -0.05,0.17 -0.6,-0.163c-0.55,-0.333 -2.76,-1.652 -4.911,-2.929c-3.482,-2.069 -4.774,-3.012 -4.124,-3.012c0.116,0 2.242,1.274 4.723,2.831m1.012,2.046c2.915,1.745 5.3,3.261 5.3,3.37c0,0.109 -0.765,-0.266 -1.7,-0.834c-0.935,-0.567 -3.72,-2.153 -6.189,-3.522c-2.469,-1.37 -4.494,-2.632 -4.5,-2.805c-0.014,-0.411 0.772,0.009 7.089,3.791m1.2,2.03c2.255,1.309 4.1,2.461 4.1,2.56c0,0.099 -1.125,-0.465 -2.5,-1.252c-1.375,-0.787 -4.433,-2.462 -6.795,-3.723c-2.363,-1.26 -4.298,-2.442 -4.3,-2.626c-0.005,-0.348 2.519,0.992 9.495,5.041m-3.919,-0.887c2.87,1.569 5.219,2.933 5.219,3.03c0,0.218 -11.646,-5.83 -12.2,-6.336c-0.84,-0.766 1.959,0.56 6.981,3.306m20.019,-1.82c0.746,0.77 1.267,1.4 1.157,1.4c-0.11,0 -0.811,-0.63 -1.557,-1.4c-0.746,-0.77 -1.267,-1.4 -1.157,-1.4c0.11,0 0.811,0.63 1.557,1.4m-21.375,2.434c7.553,3.967 7.415,4.192 -0.225,0.366c-5.319,-2.664 -6.569,-3.4 -5.775,-3.4c0.124,0 2.824,1.365 6,3.034m4.175,3.542c0,0.094 -2.588,-1.032 -5.751,-2.503c-3.163,-1.47 -5.674,-2.805 -5.58,-2.966c0.161,-0.279 11.331,5.112 11.331,5.469m-7.105,-2.309c2.583,1.252 4.64,2.331 4.572,2.4c-0.137,0.137 -9.407,-4.074 -9.772,-4.439c-0.644,-0.644 0.962,-0.014 5.2,2.039m-0.667,0.99c2.966,1.351 5.333,2.516 5.26,2.588c-0.17,0.171 -10.369,-4.235 -10.868,-4.695c-0.772,-0.711 0.342,-0.293 5.608,2.107m14.372,-1.064l0.8,0.651l-0.8,-0.393c-0.44,-0.216 -1.16,-0.685 -1.6,-1.044l-0.8,-0.651l0.8,0.393c0.44,0.216 1.16,0.685 1.6,1.044m-14.56,2.257c2.634,1.13 4.726,2.117 4.651,2.193c-0.198,0.197 -10.013,-3.881 -10.491,-4.36c-0.533,-0.534 0.061,-0.313 5.84,2.167m13.16,0.571c0,0.11 -0.54,-0.08 -1.2,-0.421c-0.66,-0.341 -1.2,-0.711 -1.2,-0.821c0,-0.11 0.54,0.08 1.2,0.421c0.66,0.341 1.2,0.711 1.2,0.821m-4,2.379c0.99,0.53 1.62,0.964 1.4,0.964c-0.22,0 -1.21,-0.434 -2.2,-0.964c-0.99,-0.53 -1.62,-0.964 -1.4,-0.964c0.22,0 1.21,0.434 2.2,0.964m-5.2,0c0.55,0.314 0.82,0.572 0.6,0.572c-0.22,0 -0.85,-0.258 -1.4,-0.572c-0.55,-0.314 -0.82,-0.572 -0.6,-0.572c0.22,0 0.85,0.258 1.4,0.572" fill="#fcc353" fill-rule="evenodd"/><path id="path1" d="m71.65279,36.92021c0.133,23.186 0.155,23.757 1.017,26.329c3.911,11.659 16.808,17.983 28.223,13.84c23.026,-8.358 16.967,-42.189 -7.529,-42.04c-4.722,0.029 -5.478,0.18 -9.9,1.973c-0.657,0.266 -0.7,-0.448 -0.7,-11.759l0,-12.043l-5.623,0l-5.623,0l0.135,23.7m101.62,-0.2c0.167,25.176 0.155,25.025 2.324,29.568c4.485,9.398 16.525,14.408 26.443,11.002c23.417,-8.042 17.851,-42.22 -6.876,-42.22c-4.978,0 -5.567,0.113 -10.1,1.952c-0.657,0.266 -0.7,-0.448 -0.7,-11.759l0,-12.043l-5.623,0l-5.624,0l0.156,23.5m74.691,-12.7l0,10.8l-2.8,0l-2.8,0l0,5.6l0,5.6l2.8,0l2.8,0l0,16.2l0,16.2l5.6,0l5.6,0l0,-16.2l0,-16.2l2.6,0l2.6,0l0,-5.6l0,-5.6l-2.6,0l-2.6,0l0,-10.8l0,-10.8l-5.6,0l-5.6,0l0,10.8m-20.734,-4.924c-3.492,1.72 -4.058,6.5 -1.093,9.224c3.008,2.763 8.117,1.16 9.012,-2.828c1.076,-4.793 -3.565,-8.542 -7.919,-6.396m-104.783,28.624c0.149,12.168 0.209,13.047 1.067,15.5c4.504,12.869 17.369,18.343 30.55,12.998c1.128,-0.457 0.962,3.823 -0.249,6.424c-1.539,3.305 -5.782,6.178 -9.124,6.178c-0.668,0 -0.727,0.453 -0.727,5.6l0,5.6l1.127,0c8.965,0 18.023,-7.245 20.516,-16.411c0.346,-1.275 0.532,-8.539 0.647,-25.289l0.162,-23.5l-5.826,0l-5.826,0l0,12.121l0,12.122l-1.035,2.078c-4.03,8.086 -15.281,7.846 -19.009,-0.406c-0.928,-2.053 -0.96,-2.462 -1.083,-14.015l-0.126,-11.9l-5.611,0l-5.611,0l0.158,12.9m101.517,8.9l0,21.8l5.8,0l5.8,0l0,-21.8l0,-21.8l-5.8,0l-5.8,0l0,21.8m-220.772,-8.1c-4.579,9.475 -3.637,21.451 2.32,29.5c1.61,2.175 4.997,5.588 5.552,5.594c0.275,0.003 0.5,0.165 0.5,0.359c0,0.517 4.802,3.293 5.234,3.026c0.201,-0.124 0.366,-0.05 0.366,0.166c0,0.453 2.742,1.446 3.074,1.114c0.122,-0.122 0.483,0.041 0.802,0.36c0.861,0.861 1.412,0.705 1.132,-0.319c-0.235,-0.859 -0.224,-0.863 0.232,-0.1c0.263,0.44 0.536,0.869 0.606,0.954c0.217,0.261 2.954,0.479 2.954,0.236c0,-0.127 -0.285,-0.781 -0.633,-1.454c-0.348,-0.673 -0.462,-1.118 -0.252,-0.989c0.209,0.13 0.601,0.767 0.87,1.416c0.449,1.084 1.489,1.896 1.902,1.484c0.094,-0.095 -0.116,-0.729 -0.468,-1.41c-0.871,-1.684 -0.493,-1.568 0.528,0.163c0.454,0.77 1.102,1.4 1.44,1.4c0.752,0 0.775,-0.38 0.085,-1.411c-1.198,-1.789 -2.324,-3.789 -2.134,-3.789c0.112,0 0.86,1.08 1.662,2.4c0.802,1.32 1.715,2.4 2.029,2.4c0.812,0 0.72,-0.408 -0.55,-2.422c-1.672,-2.652 -1.742,-2.778 -1.538,-2.778c0.103,0 0.926,1.17 1.829,2.6c0.903,1.43 1.91,2.6 2.236,2.6c0.912,0 0.766,-0.356 -1.724,-4.212c-2.947,-4.564 -2.962,-4.588 -2.759,-4.588c0.093,0 1.409,1.887 2.923,4.193c1.802,2.743 3.004,4.195 3.478,4.2c0.846,0.008 0.998,0.305 -2.605,-5.093c-1.505,-2.255 -2.648,-4.1 -2.54,-4.1c0.108,0 1.566,1.98 3.239,4.4c1.673,2.42 3.299,4.4 3.612,4.4c0.915,0 0.705,-0.469 -1.85,-4.131c-3.17,-4.544 -2.775,-4.464 0.589,0.118c1.824,2.485 2.816,3.517 3.229,3.358c0.662,-0.254 0.662,-0.255 -3.299,-5.645c-3.159,-4.299 -2.216,-3.514 1.321,1.1c1.686,2.2 3.216,4 3.399,4c1.029,0 0.434,-1.163 -2.64,-5.159c-1.88,-2.442 -3.333,-4.441 -3.23,-4.441c0.103,0 1.762,1.98 3.687,4.4c1.925,2.42 3.638,4.4 3.808,4.4c1.111,0 0.298,-1.425 -3.481,-6.1c-2.356,-2.915 -3.942,-4.993 -3.524,-4.618c0.419,0.375 2.471,2.749 4.561,5.275c3.559,4.302 4.354,4.98 4.683,3.994c0.073,-0.219 -2.143,-3.067 -4.925,-6.329c-2.781,-3.262 -4.884,-5.823 -4.672,-5.692c0.212,0.13 2.617,2.766 5.344,5.856c4.48,5.075 5.77,6.178 5.77,4.932c0,-0.229 -2.036,-2.734 -4.524,-5.567l-4.524,-5.151l4.999,5.2c3.685,3.834 5.117,5.083 5.449,4.755c0.332,-0.328 -1.14,-2.164 -5.616,-7l-6.066,-6.555l6.25,6.3c3.437,3.465 6.425,6.3 6.641,6.3c0.894,0 0.268,-1.15 -1.641,-3.015c-1.118,-1.092 -3.491,-3.605 -5.273,-5.585c-2.656,-2.951 -2.219,-2.593 2.425,1.987c4.528,4.466 5.766,5.487 6.165,5.088c0.399,-0.399 -0.905,-1.87 -6.493,-7.326l-6.992,-6.827l6,5.522c3.3,3.037 6.48,5.954 7.067,6.483c0.66,0.593 1.263,0.84 1.58,0.644c0.356,-0.22 -1.176,-1.94 -5.068,-5.689l-5.579,-5.374l5.4,4.771c6.192,5.472 6.243,5.508 6.533,4.75c0.141,-0.367 -1.875,-2.416 -5.758,-5.851c-3.286,-2.907 -5.975,-5.364 -5.975,-5.46c0,-0.096 1.641,1.233 3.646,2.953c8.225,7.058 8.737,7.44 9.013,6.72c0.142,-0.37 0.082,-0.789 -0.133,-0.931c-0.831,-0.554 -10.126,-8.553 -10.126,-8.715c0,-0.095 2.324,1.724 5.165,4.042c2.841,2.317 5.35,4.213 5.576,4.213c1.264,0 0.453,-1.039 -2.943,-3.771c-2.089,-1.68 -3.798,-3.154 -3.798,-3.275c0,-0.121 1.547,0.987 3.437,2.463c1.89,1.477 3.68,2.706 3.977,2.734c1.361,0.124 0.465,-0.968 -2.913,-3.551c-5.203,-3.978 -5.458,-4.444 -0.465,-0.85c4.509,3.247 4.764,3.378 4.764,2.46c0,-0.324 -1.62,-1.778 -3.6,-3.232c-4.728,-3.47 -4.625,-3.732 0.157,-0.398c2.953,2.059 3.808,2.489 3.993,2.007c0.16,-0.419 -0.354,-1.024 -1.615,-1.9c-3.142,-2.185 -3.668,-2.816 -0.949,-1.14c2.393,1.476 3.214,1.701 3.214,0.882c0,-0.178 -1.71,-1.451 -3.8,-2.829c-2.09,-1.378 -3.8,-2.593 -3.8,-2.699c0,-0.106 0.495,0.132 1.1,0.529c4.069,2.671 6.121,3.804 6.483,3.58c0.741,-0.458 0.456,-0.8 -1.783,-2.139c-1.21,-0.724 -2.2,-1.41 -2.2,-1.526c0,-0.216 2.698,1.316 3.38,1.919c0.608,0.538 1.02,0.391 1.02,-0.364c-0.001,-0.423 -0.791,-1.144 -2,-1.823c-1.1,-0.618 -2,-1.22 -2,-1.338c0,-0.118 0.824,0.268 1.831,0.858c1.951,1.143 2.648,1.062 1.85,-0.215c-0.268,-0.43 -0.327,-0.782 -0.132,-0.782c0.196,0 0.367,-0.72 0.379,-1.6c0.012,-0.88 -0.141,-1.6 -0.341,-1.6c-0.199,0 -0.248,-0.296 -0.109,-0.658c0.154,-0.403 -0.036,-0.868 -0.489,-1.2c-0.408,-0.298 -0.528,-0.542 -0.265,-0.542c0.262,0 0.476,-0.27 0.476,-0.6c0,-0.33 -0.163,-0.6 -0.363,-0.6c-0.199,0 -0.269,-0.358 -0.154,-0.795c0.132,-0.504 -0.028,-0.886 -0.435,-1.042c-0.354,-0.136 -0.541,-0.412 -0.416,-0.614c0.354,-0.573 -1.961,-5.149 -2.605,-5.149c-0.637,0 -5.801,5.207 -5.682,5.73c0.041,0.181 -0.109,0.216 -0.333,0.078c-0.224,-0.139 -0.993,0.188 -1.71,0.725c-11.345,8.515 -30.797,5.267 -38.69,-6.459c-0.88,-1.307 -1.053,-1.156 -2.784,2.426m94.972,-1.395c7.653,3.945 7.738,14.875 0.145,18.723c-10.381,5.26 -20.271,-7.609 -12.484,-16.247c3.175,-3.522 8.311,-4.552 12.339,-2.476m101.2,-0.164c7.024,3.278 8.429,12.421 2.686,17.476c-9.82,8.644 -23.341,-5.167 -14.577,-14.889c1.985,-2.201 4.866,-3.52 7.691,-3.52c1.467,0 2.867,0.311 4.2,0.933m-143.8,11.28c0,0.11 -0.54,-0.08 -1.2,-0.421c-0.66,-0.341 -1.2,-0.711 -1.2,-0.821c0,-0.11 0.54,0.08 1.2,0.421c0.66,0.341 1.2,0.711 1.2,0.821m0.4,2c0,0.11 -0.54,-0.08 -1.2,-0.421c-0.66,-0.341 -1.2,-0.711 -1.2,-0.821c0,-0.11 0.54,0.08 1.2,0.421c0.66,0.341 1.2,0.711 1.2,0.821m-4.2,1.172l0.8,0.651l-0.8,-0.393c-0.44,-0.216 -1.16,-0.685 -1.6,-1.044l-0.8,-0.651l0.8,0.393c0.44,0.216 1.16,0.685 1.6,1.044m-1,3.245c0,0.11 -0.81,-0.357 -1.8,-1.038c-0.99,-0.681 -1.8,-1.328 -1.8,-1.438c0,-0.11 0.81,0.357 1.8,1.038c0.99,0.681 1.8,1.328 1.8,1.438m-12.4,1.962c0.746,0.77 1.267,1.4 1.157,1.4c-0.11,0 -0.811,-0.63 -1.557,-1.4c-0.746,-0.77 -1.267,-1.4 -1.157,-1.4c0.11,0 0.811,0.63 1.557,1.4m-3.4,5c0.859,0.88 1.472,1.6 1.362,1.6c-0.11,0 -0.903,-0.72 -1.762,-1.6c-0.859,-0.88 -1.472,-1.6 -1.362,-1.6c0.11,0 0.903,0.72 1.762,1.6m-3.4,8c0.47,0.66 0.764,1.2 0.654,1.2c-0.11,0 -0.584,-0.54 -1.054,-1.2c-0.47,-0.66 -0.764,-1.2 -0.654,-1.2c0.11,0 0.584,0.54 1.054,1.2" fill="#fcb41c" fill-rule="evenodd"/><path id="path2" d="m4.52056,45.02021c0.55,0.314 1.18,0.572 1.4,0.572c0.22,0 -0.05,-0.258 -0.6,-0.572c-0.55,-0.314 -1.18,-0.572 -1.4,-0.572c-0.22,0 0.05,0.258 0.6,0.572m-4.183,3.372c-0.114,0.186 0.094,0.583 0.464,0.883c0.37,0.3 0.547,0.335 0.393,0.079c-0.153,-0.256 -0.062,-0.538 0.203,-0.626c0.308,-0.103 0.241,-0.254 -0.184,-0.417c-0.367,-0.141 -0.761,-0.104 -0.876,0.081" fill="#fcb82f" fill-rule="evenodd"/><path id="path3" d="m3.8943,9.32421c2.011,2.138 1.978,2.115 1.858,1.292c-0.099,-0.673 -1.041,-1.76 -1.041,-1.201c0,0.195 -0.585,-0.172 -1.3,-0.816c-0.715,-0.644 -0.498,-0.318 0.483,0.725m-2.783,1.696c0.517,0.55 0.782,1 0.59,1c-0.583,0 0.553,0.945 1.26,1.049c0.413,0.06 0.084,-0.492 -0.877,-1.476c-1.671,-1.712 -2.502,-2.201 -0.973,-0.573m1.058,4.293c0.122,0.198 0.324,0.258 0.45,0.133c0.125,-0.125 0.602,0.088 1.06,0.473c0.82,0.691 0.822,0.689 0.13,-0.132c-0.674,-0.802 -2.097,-1.212 -1.64,-0.474m10.142,4.907c1.195,1.21 2.353,2.2 2.573,2.2c0.22,0 -0.578,-0.99 -1.773,-2.2c-1.195,-1.21 -2.353,-2.2 -2.573,-2.2c-0.22,0 0.578,0.99 1.773,2.2m-3.256,0.878c0.51,0.972 1.256,1.571 1.256,1.008c0,-0.199 -0.386,-0.705 -0.858,-1.124c-0.852,-0.757 -0.855,-0.756 -0.398,0.116m10.856,4.722c0.746,0.77 1.447,1.4 1.557,1.4c0.11,0 -0.411,-0.63 -1.157,-1.4c-0.746,-0.77 -1.447,-1.4 -1.557,-1.4c-0.11,0 0.411,0.63 1.157,1.4m-1.8,1.8c0.859,0.88 1.652,1.6 1.762,1.6c0.11,0 -0.503,-0.72 -1.362,-1.6c-0.859,-0.88 -1.652,-1.6 -1.762,-1.6c-0.11,0 0.503,0.72 1.362,1.6m6.549,6.304c0.41,0.767 1.501,1.788 2.451,2.294c0.33,0.176 -0.112,-0.427 -0.981,-1.339c-1.736,-1.821 -2.039,-2.018 -1.47,-0.955m2.851,1.496c1.195,1.21 2.353,2.2 2.573,2.2c0.22,0 -0.578,-0.99 -1.773,-2.2c-1.195,-1.21 -2.353,-2.2 -2.573,-2.2c-0.22,0 0.578,0.99 1.773,2.2m-3.394,-0.488c0.386,0.612 0.803,1.012 0.926,0.889c0.123,-0.123 -0.193,-0.623 -0.702,-1.112l-0.926,-0.889l0.702,1.112m8.994,1.688c0.746,0.77 1.447,1.4 1.557,1.4c0.11,0 -0.411,-0.63 -1.157,-1.4c-0.746,-0.77 -1.447,-1.4 -1.557,-1.4c-0.11,0 0.411,0.63 1.157,1.4m-1.617,1.1c1.658,1.766 2.017,2.084 2.017,1.783c0,-0.064 -0.855,-0.919 -1.9,-1.9l-1.9,-1.783l1.783,1.9m-1.183,1.7c1.195,1.21 2.263,2.2 2.373,2.2c0.11,0 -0.778,-0.99 -1.973,-2.2c-1.195,-1.21 -2.263,-2.2 -2.373,-2.2c-0.11,0 0.778,0.99 1.973,2.2m-2.8,-1.275c0,0.069 0.585,0.654 1.3,1.3l1.3,1.175l-1.175,-1.3c-1.095,-1.212 -1.425,-1.484 -1.425,-1.175m-2.2,0.927c0.22,0.193 1.12,0.98 1.999,1.749l1.599,1.399l-1.199,-1.334c-0.659,-0.734 -1.559,-1.521 -1.999,-1.749c-0.44,-0.228 -0.62,-0.257 -0.4,-0.065m-1.365,0.248c0.093,0.055 0.798,0.64 1.567,1.3l1.398,1.2l-1.175,-1.3c-0.646,-0.715 -1.351,-1.3 -1.567,-1.3c-0.215,0 -0.315,0.045 -0.223,0.1m5.165,1.7c0.746,0.77 1.447,1.4 1.557,1.4c0.11,0 -0.411,-0.63 -1.157,-1.4c-0.746,-0.77 -1.447,-1.4 -1.557,-1.4c-0.11,0 0.411,0.63 1.157,1.4m-8.367,-0.077c0.092,0.067 0.977,0.714 1.967,1.438l1.8,1.315l-1.6,-1.432c-0.88,-0.788 -1.765,-1.435 -1.967,-1.438c-0.201,-0.003 -0.291,0.049 -0.2,0.117m-4,1.215c0.808,0.669 5.167,3.446 5.167,3.292c0,-0.259 -4.664,-3.43 -5.045,-3.43c-0.158,0 -0.213,0.062 -0.122,0.138m0.767,1.882c1.387,0.941 2.178,1.215 1.2,0.416c-0.55,-0.45 -1.18,-0.819 -1.4,-0.821c-0.22,-0.002 -0.13,0.181 0.2,0.405m-4.8,0.98c0.55,0.314 1.18,0.572 1.4,0.572c0.22,0 -0.05,-0.258 -0.6,-0.572c-0.55,-0.314 -1.18,-0.572 -1.4,-0.572c-0.22,0 0.05,0.258 0.6,0.572m2.4,1.179c0,0.11 0.54,0.48 1.2,0.821c0.66,0.341 1.2,0.531 1.2,0.421c0,-0.11 -0.54,-0.48 -1.2,-0.821c-0.66,-0.341 -1.2,-0.531 -1.2,-0.421m-2.4,3.621c0.99,0.53 1.98,0.964 2.2,0.964c0.22,0 -0.41,-0.434 -1.4,-0.964c-0.99,-0.53 -1.98,-0.964 -2.2,-0.964c-0.22,0 0.41,0.434 1.4,0.964m-5.2,0c0.55,0.314 1.18,0.572 1.4,0.572c0.22,0 -0.05,-0.258 -0.6,-0.572c-0.55,-0.314 -1.18,-0.572 -1.4,-0.572c-0.22,0 0.05,0.258 0.6,0.572" fill="#fcbc3c" fill-rule="evenodd"/><path id="path4" d="m0.62677,36.84021c1.387,0.941 2.178,1.215 1.2,0.416c-0.55,-0.45 -1.18,-0.819 -1.4,-0.821c-0.22,-0.002 -0.13,0.181 0.2,0.405" fill="#fcb424" fill-rule="evenodd"/></g></svg>