<svg id="svg" version="1.1" xmlns="http://www.w3.org/2000/svg" xmlns:xlink="http://www.w3.org/1999/xlink" x="0px" y="0px" viewBox="0, 0, 400,142.51752514477292">
<g id="svgg">
<path id="path0" d="M178.833 77.583 L 178.833 114.167 189.250 114.167 L 199.667 114.167 199.667 101.667 L 199.667 89.167 215.750 89.167 L 231.833 89.167 231.833 81.083 L 231.833 73.000 215.750 73.000 L 199.667 73.000 199.667 65.083 L 199.667 57.167 217.917 57.167 L 236.167 57.167 236.167 49.083 L 236.167 41.000 207.500 41.000 L 178.833 41.000 178.833 77.583 M243.333 49.333 L 243.333 57.667 254.583 57.667 L 265.833 57.667 265.833 85.917 L 265.833 114.167 276.250 114.167 L 286.667 114.167 286.667 85.917 L 286.667 57.667 297.750 57.667 L 308.833 57.667 308.833 49.333 L 308.833 41.000 276.083 41.000 L 243.333 41.000 243.333 49.333 M311.033 41.125 C 311.426 41.931,311.574 42.167,311.690 42.167 C 311.765 42.167,311.980 42.467,312.167 42.833 C 312.354 43.200,312.580 43.500,312.670 43.500 C 312.760 43.500,312.833 43.574,312.833 43.664 C 312.833 43.803,314.087 45.654,314.924 46.750 C 315.064 46.933,315.779 47.946,316.512 49.000 C 317.245 50.054,317.954 51.047,318.086 51.206 C 318.218 51.366,318.518 51.799,318.751 52.168 C 319.170 52.833,320.996 55.395,321.329 55.785 C 321.423 55.895,321.500 56.030,321.500 56.083 C 321.500 56.137,321.576 56.271,321.669 56.382 C 321.762 56.493,322.397 57.371,323.079 58.333 C 323.761 59.296,324.397 60.174,324.493 60.285 C 324.588 60.395,324.667 60.564,324.667 60.660 C 324.667 60.755,324.725 60.833,324.797 60.833 C 324.869 60.833,325.071 61.077,325.246 61.375 C 325.421 61.673,326.074 62.610,326.699 63.456 C 327.323 64.303,327.833 65.072,327.833 65.165 C 327.833 65.258,327.907 65.333,327.997 65.333 C 328.086 65.333,328.313 65.633,328.500 66.000 C 328.687 66.367,328.914 66.667,329.003 66.667 C 329.093 66.667,329.167 66.737,329.167 66.823 C 329.167 66.978,330.785 69.349,331.222 69.833 C 331.346 69.971,331.588 70.327,331.759 70.625 C 331.931 70.923,332.131 71.167,332.203 71.167 C 332.275 71.167,332.333 71.237,332.333 71.323 C 332.333 71.465,333.840 73.665,334.422 74.373 C 334.553 74.532,334.860 74.982,335.105 75.373 C 335.350 75.764,335.597 76.121,335.654 76.167 C 335.711 76.212,335.890 76.458,336.051 76.711 L 336.345 77.172 334.341 79.961 C 333.239 81.495,332.260 82.842,332.166 82.955 C 332.071 83.067,331.755 83.517,331.464 83.955 C 331.172 84.392,330.888 84.787,330.831 84.833 C 330.774 84.879,330.474 85.292,330.163 85.750 C 329.852 86.208,329.535 86.658,329.460 86.750 C 329.384 86.842,328.487 88.079,327.466 89.500 C 324.953 92.996,324.189 94.053,324.034 94.250 C 323.962 94.342,323.648 94.792,323.337 95.250 C 323.026 95.708,322.726 96.121,322.670 96.167 C 322.613 96.212,322.389 96.513,322.170 96.833 C 321.952 97.154,320.797 98.767,319.605 100.417 C 318.412 102.067,317.112 103.867,316.717 104.417 C 316.322 104.967,315.940 105.492,315.868 105.583 C 315.795 105.675,315.482 106.125,315.171 106.583 C 314.860 107.042,314.558 107.454,314.500 107.500 C 314.442 107.546,314.141 107.958,313.831 108.417 C 313.521 108.875,312.580 110.188,311.740 111.333 C 310.900 112.479,310.125 113.585,310.017 113.792 L 309.822 114.167 321.702 114.163 L 333.583 114.159 334.130 113.371 C 334.689 112.566,336.851 109.340,337.373 108.532 C 337.533 108.285,337.715 107.971,337.778 107.833 C 337.841 107.696,337.937 107.546,337.991 107.500 C 338.098 107.410,340.362 104.025,340.500 103.750 C 340.594 103.563,341.179 102.672,341.376 102.417 C 341.738 101.947,342.333 100.967,342.333 100.840 C 342.333 100.760,342.390 100.669,342.460 100.639 C 342.530 100.608,343.051 99.871,343.618 99.000 C 344.185 98.129,344.709 97.338,344.783 97.241 C 344.857 97.144,344.992 96.944,345.083 96.796 C 345.175 96.648,345.521 96.127,345.852 95.639 C 346.398 94.833,347.801 92.661,348.273 91.892 C 348.449 91.605,348.476 91.615,348.674 92.042 C 348.791 92.294,348.950 92.500,349.027 92.500 C 349.104 92.500,349.167 92.572,349.167 92.659 C 349.167 92.799,349.762 93.786,350.126 94.250 C 350.198 94.342,350.778 95.204,351.416 96.167 C 352.053 97.129,352.633 97.942,352.704 97.972 C 352.775 98.003,352.833 98.108,352.833 98.206 C 352.833 98.305,353.021 98.631,353.250 98.931 C 353.479 99.232,353.667 99.552,353.667 99.642 C 353.667 99.732,353.724 99.831,353.795 99.861 C 353.866 99.892,355.043 101.604,356.412 103.667 C 357.780 105.729,358.949 107.454,359.008 107.500 C 359.068 107.546,359.147 107.658,359.183 107.750 C 359.319 108.088,362.572 112.919,362.700 112.972 C 362.773 113.003,362.833 113.134,362.833 113.264 C 362.833 113.394,362.903 113.500,362.989 113.500 C 363.074 113.500,363.192 113.650,363.250 113.833 C 363.373 114.220,387.333 114.377,387.333 113.991 C 387.333 113.895,386.938 113.276,386.455 112.616 C 385.972 111.956,385.433 111.192,385.258 110.917 C 385.082 110.642,384.838 110.316,384.716 110.193 C 384.593 110.069,384.380 109.751,384.242 109.484 C 384.104 109.218,383.918 109.000,383.829 109.000 C 383.740 109.000,383.667 108.922,383.667 108.826 C 383.667 108.731,383.587 108.562,383.490 108.451 C 383.394 108.341,382.640 107.313,381.816 106.167 C 379.425 102.842,378.941 102.162,378.516 101.520 C 378.296 101.188,378.066 100.879,378.005 100.833 C 377.945 100.787,377.640 100.375,377.329 99.917 C 377.018 99.458,376.704 99.008,376.630 98.917 C 376.002 98.136,372.589 93.334,372.453 93.042 C 372.358 92.835,372.224 92.667,372.156 92.667 C 372.088 92.667,371.842 92.348,371.611 91.958 C 371.379 91.569,371.039 91.063,370.855 90.833 C 370.671 90.604,369.657 89.217,368.601 87.750 C 367.545 86.283,366.560 84.933,366.412 84.750 C 366.263 84.567,365.953 84.098,365.722 83.708 C 365.491 83.319,365.246 83.000,365.178 83.000 C 365.109 83.000,364.976 82.831,364.881 82.625 C 364.786 82.419,364.376 81.800,363.969 81.250 C 361.539 77.967,360.500 76.497,360.500 76.343 C 360.500 76.247,361.368 74.987,362.430 73.542 C 363.491 72.098,364.628 70.504,364.957 70.000 C 365.286 69.496,365.617 69.059,365.691 69.029 C 365.765 68.999,365.992 68.680,366.194 68.321 C 366.396 67.961,366.623 67.667,366.697 67.667 C 366.772 67.667,366.833 67.554,366.833 67.417 C 366.833 67.279,366.891 67.167,366.961 67.167 C 367.031 67.167,367.273 66.867,367.500 66.500 C 367.727 66.133,367.969 65.833,368.039 65.833 C 368.109 65.833,368.167 65.759,368.167 65.668 C 368.167 65.521,370.150 62.746,372.776 59.221 C 373.266 58.563,373.667 57.944,373.667 57.846 C 373.667 57.747,373.736 57.667,373.820 57.667 C 373.904 57.667,374.144 57.385,374.354 57.042 C 374.564 56.698,374.795 56.392,374.868 56.361 C 374.941 56.331,375.000 56.199,375.000 56.069 C 375.000 55.940,375.057 55.833,375.127 55.833 C 375.197 55.833,375.440 55.533,375.667 55.167 C 375.893 54.800,376.136 54.500,376.206 54.500 C 376.276 54.500,376.333 54.387,376.333 54.250 C 376.333 54.112,376.397 54.000,376.475 54.000 C 376.552 54.000,376.683 53.859,376.766 53.686 C 376.849 53.513,377.084 53.157,377.288 52.894 C 377.493 52.631,378.499 51.254,379.525 49.833 C 380.551 48.413,381.790 46.712,382.278 46.054 C 382.767 45.396,383.167 44.778,383.167 44.679 C 383.167 44.581,383.236 44.500,383.320 44.500 C 383.404 44.500,383.644 44.219,383.854 43.875 C 384.064 43.531,384.295 43.225,384.368 43.194 C 384.441 43.164,384.500 43.033,384.500 42.903 C 384.500 42.773,384.556 42.667,384.625 42.666 C 384.754 42.666,385.667 41.300,385.667 41.108 C 385.667 41.048,380.636 41.000,374.488 41.000 C 362.902 41.000,362.833 41.004,362.833 41.641 C 362.833 41.731,362.777 41.831,362.708 41.861 C 362.640 41.892,362.283 42.367,361.917 42.917 C 361.550 43.467,361.194 43.942,361.125 43.972 C 361.056 44.003,361.000 44.128,361.000 44.250 C 361.000 44.372,360.941 44.497,360.869 44.528 C 360.797 44.558,360.369 45.146,359.919 45.833 C 359.468 46.521,359.055 47.121,359.001 47.167 C 358.946 47.212,358.305 48.150,357.576 49.250 C 356.847 50.350,356.208 51.288,356.157 51.333 C 356.106 51.379,355.693 51.979,355.240 52.667 C 354.787 53.354,354.360 53.942,354.292 53.972 C 354.223 54.003,354.167 54.128,354.167 54.250 C 354.167 54.372,354.110 54.497,354.042 54.528 C 353.973 54.558,353.617 55.033,353.250 55.583 C 352.883 56.133,352.527 56.608,352.458 56.639 C 352.390 56.669,352.333 56.794,352.333 56.917 C 352.333 57.039,352.277 57.164,352.208 57.194 C 352.140 57.225,351.483 58.149,350.750 59.249 C 348.822 62.139,348.988 62.022,348.317 60.966 C 347.775 60.112,346.021 57.625,345.671 57.215 C 345.577 57.105,345.500 56.969,345.500 56.915 C 345.500 56.860,345.087 56.258,344.583 55.576 C 344.079 54.894,343.667 54.295,343.667 54.245 C 343.667 54.194,343.589 54.062,343.494 53.951 C 343.400 53.841,342.804 53.000,342.170 52.083 C 341.537 51.167,340.902 50.285,340.759 50.125 C 340.617 49.965,340.500 49.800,340.500 49.758 C 340.500 49.683,340.193 49.229,338.534 46.849 C 338.049 46.153,337.380 45.171,337.049 44.667 C 336.717 44.163,336.123 43.328,335.728 42.811 C 335.334 42.295,334.921 41.676,334.812 41.436 L 334.613 41.000 322.793 41.000 C 316.291 41.000,311.000 41.056,311.033 41.125 " stroke="none" fill="#fcfcfc" fill-rule="evenodd"></path>
<path id="path1" d="M12.667 71.333 L 12.667 87.000 28.333 87.000 L 44.000 87.000 44.000 71.333 L 44.000 55.667 28.333 55.667 L 12.667 55.667 12.667 71.333 M50.833 71.333 L 50.833 87.000 85.583 87.000 L 120.333 87.000 120.333 71.333 L 120.333 55.667 85.583 55.667 L 50.833 55.667 50.833 71.333 " stroke="none" fill="#5cccdc" fill-rule="evenodd"></path>
<path id="path2" d="M50.833 28.333 L 50.833 44.000 99.083 44.000 L 147.333 44.000 147.333 28.333 L 147.333 12.667 99.083 12.667 L 50.833 12.667 50.833 28.333 " stroke="none" fill="#04a4c4" fill-rule="evenodd"></path>
<path id="path3" d="M50.833 114.167 L 50.833 129.833 66.500 129.833 L 82.167 129.833 82.167 114.167 L 82.167 98.500 66.500 98.500 L 50.833 98.500 50.833 114.167 " stroke="none" fill="#acecf4" fill-rule="evenodd"></path>
<path id="path4" d="" stroke="none" fill="#dc100e0" fill-rule="evenodd"></path>
</g>
</svg>